<?xml version="1.0" encoding="UTF-8" standalone="no"?>
<!DOCTYPE svg PUBLIC "-//W3C//DTD SVG 1.1//EN" "http://www.w3.org/Graphics/SVG/1.1/DTD/svg11.dtd">
<svg width="100%" height="100%" viewBox="0 0 70 94" version="1.1" xmlns="http://www.w3.org/2000/svg" xmlns:xlink="http://www.w3.org/1999/xlink" xml:space="preserve" xmlns:serif="http://www.serif.com/" style="fill-rule:evenodd;clip-rule:evenodd;stroke-linejoin:round;stroke-miterlimit:2;">
    <g transform="matrix(1,0,0,1,-9555,-1401)">
        <g transform="matrix(1,0,0,0.883586,322,200)">
            <g transform="matrix(0.232706,0,0,0.263366,9221.3,1359.63)">
                <path d="M342.602,115.914L251.24,6.28C247.812,2.096 243.144,0 237.254,0C231.355,0 226.69,2.093 223.264,6.28L131.901,115.914C126.954,121.819 126.099,128.285 129.333,135.328C132.76,142.372 138.284,145.894 145.895,145.894L200.716,145.894L200.716,328.617L109.353,328.617C106.307,328.617 103.927,329.665 102.214,331.759L56.531,386.575C54.247,389.429 53.868,392.765 55.388,396.571C56.913,400.004 59.671,401.711 63.67,401.711L264.665,401.711C267.335,401.711 269.518,400.859 271.232,399.149C272.943,397.434 273.798,395.248 273.798,392.578L273.798,145.897L328.617,145.897C336.232,145.897 341.748,142.376 345.18,135.331C348.604,128.481 347.745,122.009 342.602,115.914Z" style="fill:rgb(5,52,122);fill-rule:nonzero;"/>
            </g>
        </g>
    </g>
</svg>
