<?xml version="1.0" encoding="UTF-8" standalone="no"?>
<!DOCTYPE svg PUBLIC "-//W3C//DTD SVG 1.1//EN" "http://www.w3.org/Graphics/SVG/1.1/DTD/svg11.dtd">
<svg width="100%" height="100%" viewBox="0 0 109 96" version="1.1" xmlns="http://www.w3.org/2000/svg" xmlns:xlink="http://www.w3.org/1999/xlink" xml:space="preserve" xmlns:serif="http://www.serif.com/" style="fill-rule:evenodd;clip-rule:evenodd;stroke-linejoin:round;stroke-miterlimit:2;">
    <g transform="matrix(1,0,0,1,-9836,-1401)">
        <g transform="matrix(1,0,0,0.883586,322,200)">
            <g transform="matrix(0.210056,0,0,0.237732,9514.87,1352.5)">
                <path d="M485.182,204.922C485.495,204.27 485.733,203.586 485.897,202.879C491.413,179.082 480.198,163.102 470.538,155.532C468.346,137.684 451.522,126.266 437.753,120.754C436.35,103.942 429.968,90.29 418.721,80.098C400.315,63.422 373.944,61.172 361.05,61.172L360.655,61.172C348.093,39.7 319.347,38.708 302.585,41.821C292.753,38.462 282.839,35.79 273.085,33.864C267.652,32.794 262.366,36.325 261.292,41.766C260.218,47.204 263.757,52.485 269.198,53.559C278.882,55.473 288.765,58.204 298.558,61.676C300.374,62.325 302.335,62.43 304.21,61.989C304.546,61.911 337.675,54.379 344.94,74.829C346.483,79.161 350.788,81.887 355.366,81.458C355.683,81.426 387.3,78.649 405.3,95.032C411.632,100.797 415.542,108.235 417.139,117.598C403.597,118.246 382.472,123.004 371.476,144.778C368.976,149.727 370.956,155.762 375.905,158.266C377.358,158.996 378.905,159.344 380.425,159.344C384.093,159.344 387.628,157.328 389.393,153.832C398.651,135.512 421.655,137.352 425.831,137.852C429.542,139.071 451.553,146.918 450.667,160.371C450.405,164.356 452.53,168.117 456.081,169.949C456.116,169.965 459.678,171.969 462.768,176.176C466.827,181.699 468.159,188.485 466.745,196.367L466.069,197.266C450.487,198.977 427.053,208.781 423.854,237.766C423.249,243.277 427.221,248.238 432.733,248.848C433.108,248.887 433.479,248.906 433.846,248.906C438.897,248.906 443.245,245.105 443.811,239.969C445.839,221.602 461.612,217.949 468.413,217.231C512.401,249.496 481.35,324.742 479.296,329.566C468.405,350.386 454.737,361.039 437.604,362.011C430.261,355.875 411.034,342.23 377.433,334.179C372.038,332.887 366.62,336.211 365.327,341.601C364.038,346.996 367.358,352.414 372.753,353.703C401.464,360.582 417.854,371.882 423.901,376.742C423.823,379.496 423.46,382.218 422.792,384.863C415.651,413.23 377.257,428.109 337.202,418.023C330.573,416.351 324.151,414.05 318.116,411.179C315.148,409.765 311.675,409.898 308.819,411.531C305.968,413.16 304.093,416.089 303.804,419.363C302.655,432.359 303.214,444.878 305.456,456.714L279.097,461.097C277.972,457.105 276.843,452.437 275.62,447.363C269.73,422.968 261.222,387.777 236.206,358.902C257.031,353.832 277.066,350.484 295.948,348.933C301.476,348.48 305.589,343.633 305.132,338.109C304.679,332.582 299.827,328.476 294.308,328.926C269.351,330.972 242.593,335.965 214.765,343.758C189.253,347.211 171.386,345.828 169.386,345.652C125.871,339.113 113.718,312.82 116.547,292.262C117,288.969 115.793,285.664 113.324,283.437C110.855,281.211 107.449,280.351 104.218,281.141L96.941,282.922C84.25,282.293 52.527,277.379 38.25,260.754C32.047,253.527 29.672,244.801 30.996,234.074C31.504,229.934 29.402,225.91 25.715,223.969C25.672,223.945 21.398,221.371 20.348,216.836C19.098,211.434 22.723,204.965 25.984,200.492C27.957,197.785 28.449,194.27 27.297,191.125C27.219,190.914 19.816,169.559 28.269,151.832C32.973,141.969 41.988,134.696 55.07,130.219C58.859,128.922 61.508,125.567 61.82,121.575C61.832,121.446 63.109,108.715 72.383,101.801C78.789,97.028 88.031,95.805 99.847,98.168C102.527,98.7 105.304,98.125 107.547,96.567C109.789,95.008 111.3,92.606 111.73,89.907C111.765,89.688 116.261,68.797 155.429,68.055C161.371,76.168 174.48,97.485 164.753,116.582C162.238,121.524 164.207,127.571 169.144,130.086C170.605,130.828 172.16,131.18 173.691,131.18C177.347,131.18 180.874,129.176 182.648,125.696C186.265,118.59 187.929,111.465 188.273,104.586C193.691,102.282 202.128,99.805 208.863,101.809C213.242,103.106 216.609,106.286 219.16,111.52C220.898,115.09 224.472,117.164 228.195,117.164C229.667,117.164 231.167,116.836 232.585,116.145C237.57,113.719 239.64,107.707 237.21,102.723C232.199,92.442 224.374,85.469 214.578,82.559C204.144,79.461 193.527,81.438 185.671,84.086C183.05,75.126 178.929,67.34 175.304,61.61C180.031,59.551 186.414,57.153 194.273,55.087C199.636,53.68 202.843,48.188 201.433,42.829C200.023,37.462 194.531,34.262 189.171,35.669C173.304,39.837 162.433,45.258 157.613,47.95C116.953,47.958 101.234,65.719 95.316,77.219C81.304,75.895 69.504,78.797 60.144,85.879C49.234,94.133 44.765,106.012 42.969,113.348C27.543,119.809 16.516,129.828 10.145,143.188C0.898,162.582 4.461,183.449 6.902,192.899C0.762,202.809 -1.297,212.367 0.789,221.367C2.555,229 6.918,234.309 10.594,237.598C10.129,251.504 14.293,263.672 23.016,273.832C44.64,299.008 87.742,302.527 96.254,302.98C98.445,330.976 119.757,358.601 166.71,365.55C166.859,365.574 167.011,365.593 167.164,365.609C167.582,365.652 172.781,366.16 181.566,366.16C189.542,366.16 200.488,365.738 213.492,364.16C241.187,390.339 249.777,425.867 256.101,452.074C258.406,461.613 260.394,469.855 262.988,476.206C264.546,480.027 268.253,482.449 272.277,482.449C272.823,482.449 273.374,482.406 273.929,482.312L319.355,474.753C322.183,474.281 324.675,472.624 326.202,470.199C327.73,467.773 328.148,464.808 327.347,462.054C324.87,453.511 323.526,444.414 323.327,434.874C326.273,435.859 329.269,436.73 332.296,437.492C356.378,443.554 380.897,442.238 401.343,433.781C422.819,424.898 437.35,409.265 442.26,389.765C442.936,387.07 443.409,384.328 443.69,381.558C460.827,379.175 481.456,368.976 497.272,338.511C497.366,338.332 497.452,338.152 497.534,337.969C497.967,336.996 508.198,313.769 511.19,285.445C514.885,250.441 505.917,222.844 485.182,204.922Z" style="fill:rgb(5,52,122);fill-rule:nonzero;"/>
                <path d="M233.519,175.422C233.624,176.004 236.234,189.84 245.831,203.418C248.12,206.656 250.925,210.039 254.316,213.281C252.511,223.594 236.738,229.238 236.367,229.367C231.132,231.152 228.327,236.836 230.093,242.078C231.507,246.27 235.413,248.914 239.605,248.914C240.671,248.914 241.753,248.742 242.816,248.383C252.097,245.254 265.581,237.461 271.546,224.938C279.351,228.461 288.761,230.742 300.062,230.742C300.78,230.742 301.511,230.731 302.245,230.715C307.788,230.57 312.167,225.965 312.023,220.422C311.886,214.965 307.421,210.637 301.991,210.637C301.905,210.637 301.819,210.641 301.734,210.641C261.452,211.652 253.601,173.531 253.261,171.781C252.249,166.348 247.031,162.746 241.589,163.746C236.136,164.739 232.523,169.969 233.519,175.422Z" style="fill:rgb(5,52,122);fill-rule:nonzero;"/>
                <path d="M355.913,263.57C373.343,233.113 366.46,209.563 357.62,195.168C348.28,179.969 334.823,171.961 334.257,171.629C329.487,168.832 323.382,170.426 320.562,175.176C317.741,179.93 319.316,186.078 324.054,188.922C324.155,188.981 334.23,195.106 340.855,206.246C349.218,220.309 348.417,236.238 338.483,253.598C335.73,258.41 337.401,264.543 342.214,267.297C343.784,268.199 345.499,268.625 347.187,268.625C350.675,268.625 354.058,266.812 355.913,263.57Z" style="fill:rgb(5,52,122);fill-rule:nonzero;"/>
                <path d="M462.315,287.035C466.827,283.812 467.874,277.543 464.651,273.031C461.428,268.519 455.159,267.473 450.647,270.695C440.858,277.687 431.952,280.316 424.175,278.504C412.456,275.781 405.8,263.75 405.643,263.469C403.065,258.59 397.03,256.707 392.128,259.262C387.21,261.828 385.304,267.891 387.87,272.805C388.265,273.559 396.964,289.883 414.335,296.445C411.225,308.726 409.245,330.398 427.393,345.574C429.272,347.144 431.553,347.914 433.827,347.914C436.698,347.914 439.546,346.687 441.534,344.316C445.089,340.062 444.526,333.73 440.272,330.172C429.194,320.906 432.307,305.703 434.491,298.82C443.557,297.711 452.87,293.781 462.315,287.035Z" style="fill:rgb(5,52,122);fill-rule:nonzero;"/>
                <path d="M166.761,222.563C166.066,217.063 161.043,213.176 155.539,213.867C150.039,214.563 146.144,219.59 146.843,225.09C148.586,238.828 137.808,248.828 131.425,253.465C115.359,245.512 97.367,248.543 96.472,248.699C91.031,249.66 87.41,254.84 88.347,260.285C89.285,265.73 94.472,269.391 99.922,268.48C100.093,268.449 117.039,265.734 127.179,274.523C132.968,279.543 135.769,287.937 135.5,299.473C135.371,305.015 139.761,309.613 145.304,309.742C145.382,309.746 145.461,309.746 145.543,309.746C150.976,309.746 155.445,305.406 155.574,299.941C155.89,286.441 153.015,275.332 147.019,266.77C156.859,258.602 169.449,243.758 166.761,222.563Z" style="fill:rgb(5,52,122);fill-rule:nonzero;"/>
                <path d="M72.355,169.934C71.265,172.543 69.609,174.879 67.519,177.004C62.074,182.555 55.238,184.617 54.98,184.696C49.668,186.168 46.531,191.653 47.969,196.985C49.176,201.461 53.23,204.41 57.652,204.41C58.519,204.41 59.398,204.297 60.277,204.059C60.91,203.887 73.519,200.367 83.258,189.539C89.961,194.516 97.836,197.113 106.465,197.113C108.867,197.113 111.324,196.914 113.832,196.508C125.207,194.676 133.726,189.313 134.66,188.707C139.312,185.692 140.64,179.477 137.625,174.824C134.609,170.172 128.394,168.844 123.738,171.86C123.683,171.895 117.84,175.524 110.64,176.688C103.406,177.856 97.695,176.207 92.988,171.535C95.261,162.883 94.988,153.242 92.133,142.731C90.683,137.379 85.172,134.219 79.816,135.672C74.465,137.125 71.304,142.637 72.758,147.989C75.062,156.489 75,163.598 72.543,169.496C72.48,169.641 72.418,169.785 72.355,169.934Z" style="fill:rgb(5,52,122);fill-rule:nonzero;"/>
                <path d="M307.292,84.536C290.335,74.477 270.847,79.672 270.027,79.899C264.683,81.372 261.542,86.899 263.015,92.243C264.484,97.586 270.019,100.723 275.359,99.258C275.476,99.223 287.507,96.141 297.046,101.801C302.722,105.168 306.64,111.313 308.698,120.059C309.788,124.684 313.909,127.801 318.464,127.801C319.226,127.801 319.995,127.711 320.769,127.532C326.167,126.262 329.515,120.856 328.241,115.461C324.886,101.2 317.839,90.793 307.292,84.536Z" style="fill:rgb(5,52,122);fill-rule:nonzero;"/>
                <path d="M270.925,273.816C263.773,286.105 253.437,292.687 240.21,293.379C229.585,293.93 220.828,290.504 220.613,290.414C215.495,288.32 209.652,290.758 207.538,295.867C205.417,300.992 207.851,306.863 212.972,308.98C214.152,309.469 224.339,313.519 237.824,313.519C238.652,313.519 239.495,313.504 240.351,313.469C254.683,312.926 274.636,307.355 288.28,283.914C291.069,279.125 289.444,272.977 284.652,270.187C279.862,267.398 273.714,269.023 270.925,273.816Z" style="fill:rgb(5,52,122);fill-rule:nonzero;"/>
                <path d="M343.616,332.695C341.245,329.16 336.808,327.465 332.667,328.582C328.663,329.656 325.698,333.168 325.276,337.289C324.851,341.453 327.198,345.566 330.976,347.343C334.659,349.074 339.151,348.398 342.124,345.601C345.679,342.261 346.319,336.734 343.616,332.695Z" style="fill:rgb(5,52,122);fill-rule:nonzero;"/>
                <path d="M222.187,43.856C223.781,47.715 227.769,50.247 231.937,50.047C236.019,49.848 239.644,47.11 240.956,43.243C242.288,39.333 241.019,34.887 237.827,32.262C234.456,29.489 229.519,29.239 225.89,31.669C221.964,34.297 220.378,39.477 222.187,43.856Z" style="fill:rgb(5,52,122);fill-rule:nonzero;"/>
            </g>
        </g>
    </g>
</svg>
