<?xml version="1.0" encoding="UTF-8" standalone="no"?>
<!DOCTYPE svg PUBLIC "-//W3C//DTD SVG 1.1//EN" "http://www.w3.org/Graphics/SVG/1.1/DTD/svg11.dtd">
<svg width="100%" height="100%" viewBox="0 0 137 51" version="1.1" xmlns="http://www.w3.org/2000/svg" xmlns:xlink="http://www.w3.org/1999/xlink" xml:space="preserve" xmlns:serif="http://www.serif.com/" style="fill-rule:evenodd;clip-rule:evenodd;stroke-linejoin:round;stroke-miterlimit:2;">
    <g transform="matrix(1,0,0,1,-8914,-1420)">
        <g transform="matrix(1,0,0,0.883586,322,200)">
            <g transform="matrix(0.265726,0,0,0.300735,8592.4,1284.39)">
                <path d="M477.648,413.568C481.146,406.871 483.136,399.267 483.136,391.202L483.136,371.961C483.136,345.226 461.386,323.476 434.652,323.476C407.917,323.476 386.167,345.226 386.167,371.961L386.167,391.202C386.167,399.272 388.16,406.881 391.662,413.581C385.463,417.741 379.914,422.758 375.156,428.498C370.433,422.815 364.854,417.782 358.546,413.568C362.044,406.871 364.035,399.266 364.035,391.201L364.035,371.96C364.035,345.225 342.285,323.475 315.551,323.475C288.817,323.475 267.067,345.225 267.067,371.96L267.067,391.201C267.067,399.265 269.057,406.87 272.555,413.567C266.25,417.778 260.673,422.807 255.951,428.486C251.196,422.748 245.643,417.738 239.44,413.577C242.941,406.877 244.934,399.269 244.934,391.201L244.934,371.96C244.934,345.225 223.184,323.475 196.45,323.475C169.716,323.475 147.966,345.225 147.966,371.96L147.966,391.201C147.966,399.265 149.956,406.869 153.454,413.566C147.151,417.776 141.575,422.804 136.854,428.48C132.1,422.742 126.546,417.737 120.34,413.576C123.841,406.876 125.833,399.268 125.833,391.2L125.833,371.959C125.833,345.224 104.083,323.474 77.349,323.474C50.614,323.474 28.864,345.224 28.864,371.959L28.864,391.2C28.864,399.264 30.854,406.869 34.352,413.566C12.948,427.866 -0,451.672 -0,477.792L-0,501.999C-0,507.521 4.478,511.999 10,511.999L502,511.999C507.522,511.999 512,507.521 512,501.999L512,477.792C512,451.672 499.053,427.866 477.648,413.568ZM406.167,371.961C406.167,356.254 418.945,343.476 434.652,343.476C450.358,343.476 463.136,356.254 463.136,371.961L463.136,391.202C463.136,406.908 450.358,419.686 434.652,419.686C418.945,419.686 406.167,406.908 406.167,391.202L406.167,371.961ZM287.066,371.961C287.066,356.254 299.844,343.476 315.55,343.476C331.256,343.476 344.034,356.254 344.034,371.961L344.034,391.202C344.034,406.908 331.256,419.686 315.55,419.686C299.844,419.686 287.066,406.908 287.066,391.202L287.066,371.961ZM167.965,371.961C167.965,356.254 180.743,343.476 196.449,343.476C212.155,343.476 224.933,356.254 224.933,371.961L224.933,391.202C224.933,406.908 212.155,419.686 196.449,419.686C180.743,419.686 167.965,406.908 167.965,391.202L167.965,371.961ZM48.863,371.961C48.863,356.254 61.641,343.476 77.348,343.476C93.054,343.476 105.832,356.254 105.832,371.961L105.832,391.202C105.832,406.908 93.054,419.686 77.348,419.686C61.641,419.686 48.863,406.908 48.863,391.202L48.863,371.961ZM20,477.792C20,457.77 30.284,439.573 47.163,429.103C55.452,435.718 65.943,439.687 77.349,439.687C88.752,439.687 99.24,435.72 107.528,429.108C114.772,433.616 120.898,439.638 125.539,446.833C121.36,456.404 119.102,466.896 119.102,477.793L119.102,492L20,492L20,477.792ZM139.102,477.792C139.102,457.77 149.385,439.572 166.265,429.103C174.554,435.718 185.045,439.687 196.45,439.687C207.853,439.687 218.341,435.72 226.629,429.108C233.87,433.614 239.997,439.641 244.639,446.836C240.461,456.406 238.204,466.897 238.204,477.793L238.204,492L139.102,492L139.102,477.792ZM258.203,477.792C258.203,457.771 268.486,439.573 285.366,429.103C293.655,435.719 304.146,439.687 315.551,439.687C326.956,439.687 337.446,435.719 345.735,429.104C362.613,439.574 372.899,457.778 372.899,477.793L372.899,492L258.203,492L258.203,477.792ZM492,491.999L392.898,491.999L392.898,477.792C392.898,466.9 390.641,456.409 386.462,446.838C391.106,439.644 397.24,433.612 404.473,429.108C412.761,435.72 423.249,439.687 434.652,439.687C446.058,439.687 456.548,435.719 464.837,429.103C481.717,439.573 492,457.771 492,477.792L492,491.999Z" style="fill:rgb(5,52,122);fill-rule:nonzero;"/>
            </g>
        </g>
    </g>
</svg>
