<?xml version="1.0" encoding="UTF-8" standalone="no"?>
<!DOCTYPE svg PUBLIC "-//W3C//DTD SVG 1.1//EN" "http://www.w3.org/Graphics/SVG/1.1/DTD/svg11.dtd">
<svg width="100%" height="100%" viewBox="0 0 1312 411" version="1.1" xmlns="http://www.w3.org/2000/svg" xmlns:xlink="http://www.w3.org/1999/xlink" xml:space="preserve" xmlns:serif="http://www.serif.com/" style="fill-rule:evenodd;clip-rule:evenodd;stroke-linejoin:round;stroke-miterlimit:2;">
    <g transform="matrix(1,0,0,1,-8781,-556)">
        <g transform="matrix(1,0,0,0.883586,322,200)">
            <g id="g3828" transform="matrix(2.54386,0,0,2.84992,8401.56,-1036.39)">
                <path id="path3800" d="M341.12,601.31L341.12,587.294L342.067,587.294L342.193,595.312L343.014,595.312L343.014,581.233L344.214,581.233L344.151,591.713L345.224,591.713L345.413,577.318L346.423,577.318L346.423,584.389L347.244,584.389L347.307,574.224L348.507,574.161L348.507,578.391L349.643,578.375L349.62,570.345L350.385,570.334L350.401,578.328L354.094,578.249L354.15,570.314L354.931,570.302L354.986,578.245L356.114,578.233L356.146,574.224L357.062,574.161L357.03,584.01L358.009,583.979L358.103,577.381L359.05,577.318L359.082,591.302L360.029,591.302L360.06,581.295L361.165,581.295L361.291,595.216L362.27,595.248L362.207,587.356L363.249,587.356L363.312,601.246L341.12,601.31Z" style="fill:none;fill-rule:nonzero;stroke:white;stroke-width:0.36px;"/>
                <path id="path13233" d="M23.81,667.06L23.557,637.809L33.911,628.591L40.351,628.591L40.351,626.824L45.276,626.95L45.402,628.591L49.19,628.718L49.569,626.571L53.357,626.571L53.357,628.718L56.135,628.718L56.135,624.424L59.292,624.409L59.284,629.201L61.943,629.209L61.943,626.95L60.68,626.95L60.68,625.688L61.943,625.688C61.896,624.041 62.334,622.88 63.963,622.91C64.132,622.32 63.988,622.304 64.022,621.231L62.611,621.276C62.049,620.831 62.119,620.457 62.627,620.132L64.365,620.132L64.379,618.307C64.437,617.853 65.519,617.552 65.821,618.307L65.864,620.072L67.394,620.072C67.913,620.453 68.077,620.834 67.41,621.216L66.013,621.216L65.984,622.783C67.162,622.615 68.207,623.602 68.375,625.791L69.683,625.835L69.639,627.218L68.257,627.203L68.241,629.06C68.739,629.142 71.12,629.09 72.015,629.075C72.167,628.252 72.026,626.778 73.173,626.951L89.93,627.144L90.034,626.326L91.03,626.312L91.09,622.628L96.036,622.657L96.036,624.677L105.885,624.425L105.811,620.503L108.529,620.518L108.649,622.464L117.754,616.343L120.785,619.374L132.105,619.403L131.897,667.134L23.81,667.06Z" style="fill:none;fill-rule:nonzero;stroke:white;stroke-width:0.38px;stroke-linejoin:miter;stroke-miterlimit:4;"/>
                <path id="path13235" d="M145.12,548.19C145.102,548.536 145.078,548.889 145.089,549.221C144.791,549.212 144.504,549.215 144.245,549.221C144.278,549.569 144.237,549.92 144.276,550.409C144.513,550.429 144.587,550.411 145.026,550.44L144.964,555.284L144.12,552.909L144.151,558.753L142.995,558.69L143.058,560.221L144.089,560.221L144.089,563.19L143.245,563.19L143.245,564.19L144.214,564.253L144.151,566.284L143.12,566.284L143.12,567.19L142.058,567.127L142.12,569.346L141.089,569.377L141.089,570.721L142.089,570.721L142.245,575.19L141.245,575.19L141.276,577.19L139.964,577.19L139.964,574.159L138.964,574.159L138.964,581.128L138.589,581.753L138.214,576.315L137.558,581.628L137.058,576.315L136.433,581.753L134.683,581.753L134.933,584.003L136.683,584.284L136.683,586.034L133.901,586.034L133.901,588.065L135.933,588.065C135.569,590.654 136.154,595.864 135.714,598.44C135.604,599.084 134.495,597.527 134.433,598.846C134.37,600.165 134.727,603.865 134.683,605.409C134.638,606.953 133.707,604.964 133.651,606.284C133.595,607.604 134.03,610.075 133.933,610.721C132.912,610.402 132.934,611.252 131.964,611.846C131.751,614.461 132.185,616.588 132.276,619.253L132.026,667.222L198.682,666.972C198.86,647.504 198.109,628.954 198.057,609.003L193.495,597.409L182.12,597.315L182.12,595.315L181.057,595.284L181.089,593.252L180.214,593.221L180.12,591.346L180.12,587.315L178.151,587.253L178.12,584.253L177.214,584.284L177.057,575.253L175.901,567.565L175.901,566.471L176.62,566.471L176.62,565.971L175.87,565.971L175.87,565.19L175.37,565.19L175.37,565.971L174.745,565.971L174.745,566.44L175.432,566.44L175.37,567.565L174.776,575.252L174.776,581.284L173.057,581.252L173.089,575.284L172.62,567.534C172.65,567.018 172.652,566.716 172.651,566.346L173.37,566.377L173.37,565.846L172.713,565.846L172.745,565.127L172.182,565.127L172.182,565.815L171.557,565.846C171.52,566.251 171.545,566.152 171.557,566.377L172.151,566.346C172.106,566.704 172.127,567.087 172.057,567.534L171.588,571.44L171.088,575.252L171.026,584.409L170.151,584.409L170.151,585.284L169.901,596.128L155.182,596.065L155.119,586.346L154.026,586.284L153.994,584.284L155.307,584.284L155.244,582.44L153.244,582.502L153.182,580.409L152.151,580.409L152.088,575.19L151.213,575.252C150.897,572.498 150.965,570.17 150.713,567.409L150.088,575.252L148.807,575.252L148.745,570.596L149.651,570.69L149.651,569.377L148.776,569.377L148.776,567.409L148.057,567.409L147.995,566.471L147.12,566.409L147.12,564.284L148.12,564.284L148.151,563.377L147.182,563.409L147.213,560.409L148.276,560.346L148.276,559.002L147.151,559.002L147.057,552.94L146.213,555.346L146.213,550.44C146.531,550.444 146.952,550.395 147.12,550.409C147.13,550.075 147.129,549.397 147.12,549.315C146.818,549.308 146.746,549.342 146.245,549.315C146.251,548.812 146.274,548.639 146.276,548.221C146.097,548.2 145.433,548.209 145.12,548.19L145.12,548.19ZM145.151,560.846L146.276,560.846L146.245,562.909L145.12,562.909L145.151,560.846ZM143.714,571.346L147.058,571.409L147.058,574.409L143.745,574.409L143.714,571.346L143.714,571.346Z" style="fill:none;fill-rule:nonzero;stroke:white;stroke-width:0.38px;stroke-linejoin:miter;stroke-miterlimit:4;"/>
                <path id="path2993" d="M329.22,505.94L327.876,524.284L327.501,525.222L327.126,534.222L326.626,534.534L326.157,541.409L325.532,541.847L325.282,546.284L324.22,546.315L324.189,543.221L322.658,531.659L321.345,543.221L321.283,554.283L322.064,554.283L322.095,555.315L323.126,555.346L323.157,556.283L324.064,556.315L324.126,566.346C322.79,566.346 321.463,566.363 320.126,566.377L320.064,560.314C319.595,556.001 319.581,551.785 319.282,547.47C318.951,551.851 318.402,555.936 318.189,560.22L318.189,571.47L317.189,571.47C315.673,572.058 316.202,572.663 316.157,573.251L318.001,573.251L318.064,574.22L320.095,575.283L320.095,625.439L318.345,625.407L318.345,624.157L316.782,624.132L316.875,617.569C316.875,617.569 316.893,617.721 317.47,617.657C319.583,616.89 317.452,616.282 317.407,616.282L316.314,616.282L315.251,612.157L315.189,605.001C315.019,601.762 314.835,599.013 314.501,604.939L314.439,612.189L313.126,616.126L311.97,616.064C310.773,616.536 310.705,617.029 312.032,617.501L312.622,617.475L312.684,625.163L310.189,625.22L303.345,618.095L303.064,613.814C302.813,612.806 302.6,611.118 302.189,613.814L302.001,618.158L289.22,631.346L288.189,631.283L288.126,633.314L289.158,633.314L289.158,634.502L290.001,634.502L290.001,647.221L287.095,647.19L287.095,639.158L286.22,639.158L286.22,632.377L287.189,632.377L285.939,631.346L285.939,630.534L284.22,630.502L284.22,629.409C287.756,628.982 284.629,624.002 281.958,624.58L281.927,617.799L283.178,617.861L283.178,616.549L282.147,616.549L282.209,613.736L281.022,612.892L281.022,611.58C282.16,610.975 282.233,610.304 280.991,609.58L279.928,600.705L278.678,609.58C277.898,610.104 276.95,610.616 278.709,611.486L278.709,612.799L277.241,613.642L277.209,616.517L276.397,616.549L276.397,617.767L277.377,617.887L277.471,624.367C273.938,623.782 271.999,629.816 275.314,629.19L275.314,630.284L273.97,630.284L274.064,631.096L270.314,633.534L270.314,640.252L268.22,640.221L268.22,634.096L265.97,634.034L265.939,639.096L262.189,639.065L262.22,629.003L260.314,628.972L260.189,621.128C261.538,620.036 260.761,619.301 260.158,618.534C258.726,618.494 257.819,618.45 257.72,616.909C257.145,602.517 247.651,596.78 238.97,594.253L239.064,586.284L240.501,586.284L240.595,584.503L238.97,584.503C238.942,580.181 236.537,579.673 234.532,579.159L234.064,573.691L233.282,573.628L232.657,579.159C230.372,579.776 227.871,580.171 227.907,584.503L226.22,584.691L226.22,586.128L228.001,586.191L228.001,594.253C212.903,597.247 209.324,609.591 209.439,616.284L205.064,619.784L205.158,632.722L202.283,632.722L202.283,634.066L204.158,634.16L204.252,635.316L203.189,635.222L203.189,639.253L198.627,639.066L198.752,667.128L435.162,667.097L435.193,608.722L438.193,606.222L438.286,586.347L436.63,568.535L436.599,567.347L437.505,567.347L437.536,566.378L436.599,566.378L436.599,564.347L435.724,564.347L435.693,566.347L434.63,566.316L434.63,567.347L435.661,567.347L435.693,568.566L434.13,586.285L433.224,586.285L432.131,574.254C432.131,574.254 432.892,573.887 432.881,573.316C432.867,572.659 432.381,572.346 431.724,572.316C431.13,572.289 430.683,572.67 430.568,573.254C430.458,573.814 431.318,574.223 431.318,574.223L430.068,583.629L429.162,583.629L424.224,556.254L424.224,549.41L425.287,549.379L425.287,548.316L424.443,548.285L424.412,547.379C425.243,546.718 425.637,546.029 424.381,545.285L423.381,545.285C422.446,545.911 422.161,546.603 423.35,547.379L423.35,548.254L422.287,548.254L422.318,549.379L423.287,549.379L423.256,556.254L416.225,556.254L416.162,549.285L417.068,549.316L417.068,548.222L416.131,548.254L416.068,547.285C417.347,546.395 416.299,545.536 416.006,545.472C415.71,545.494 414.955,545.483 415.037,545.504C413.714,546.251 414.475,546.793 415.068,547.316L415.099,548.222L413.943,548.254L413.943,549.379L415.099,549.347L415.256,556.285L410.068,583.285L409.224,583.316L408.474,574.285C408.474,574.285 409.155,573.67 409.131,573.191C409.099,572.572 408.583,572.137 408.131,572.097C407.703,572.059 406.999,572.509 407.037,573.222C407.065,573.742 407.849,574.285 407.849,574.285L407.224,586.066L406.224,586.097L404.568,568.253L404.599,567.315L405.631,567.347L405.631,566.253L404.662,566.222L404.631,564.44L403.724,564.44L403.724,566.253L402.693,566.253L402.693,567.253L403.724,567.284L403.693,568.253C403.134,573.852 403.043,579.817 402.349,586.128L402.224,606.066L405.099,608.628L405.099,617.097L388.068,617.285L387.693,618.347L387.287,619.503L387.256,621.253L386.256,621.253L386.287,622.441L384.256,622.41L384.1,575.379C384.53,575.173 385.324,574.623 386.287,574.129L386.287,573.16L388.193,573.16C388.284,572.235 388.295,571.565 387.193,571.316L386.162,571.285L386.069,560.316L385.194,547.347L384.194,560.191L384.256,565.41L380.444,565.441L380.35,555.441L381.194,555.41L381.162,554.41L382.1,554.379L382.131,553.347L383.1,553.347L383.006,543.441L381.631,532.472L380.069,543.41L380.1,546.316L379.225,546.285L378.725,542.129L378.225,541.379C378.225,541.379 377.444,535.363 377.35,535.129C377.224,534.816 377.095,534.914 377.037,534.41C376.751,531.911 376.631,525.348 376.631,525.348L376.225,524.317L375.194,505.973L374.131,524.317L373.694,525.285L373.131,534.191L372.756,534.754L372.069,541.348L371.444,542.223L371.256,546.348L370.162,546.317L370.1,543.254L368.569,532.223L367.194,543.254L367.194,553.223L368.287,553.285L368.287,554.254L369.287,554.317L369.35,555.285L370.35,555.285L370.287,565.379L366.256,565.317C366.274,563.192 366.24,562.462 366.131,560.254L365.1,547.379L364.131,560.191L364.194,571.097L363.35,571.191C362.449,571.669 361.953,571.556 362.038,573.222L364.1,573.222L364.1,574.222C365.147,574.671 365.69,575.046 366.069,575.316L366.194,601.254L363.225,601.317L363.131,596.535L362.163,596.535L360.288,594.348L360.256,590.41L359.319,590.317L357.225,588.192L357.225,584.41L355.194,582.254L355.1,578.379L353.288,578.348L353.194,568.598C353.844,568.874 355.398,568.647 355.194,567.348L356.163,567.317C357.363,566.905 357.035,566.51 356.225,566.098L355.194,566.067C355.35,565.121 354.554,564.631 353.225,564.848L353.225,563.286C352.813,562.184 352.07,561.889 351.288,563.286L351.288,564.817C350.294,564.442 348.827,565.309 349.225,566.098L348.319,566.098C347.252,566.751 347.899,567.007 348.319,567.317L349.163,567.348C349.535,568.638 350.055,568.733 351.132,568.598L351.35,578.348L349.225,578.348L349.225,582.254L347.288,584.379L347.225,588.285L345.194,590.285L344.225,590.348L344.288,594.379L342.319,596.317L342.132,601.567C340.788,601.574 339.896,601.545 338.319,601.535L338.225,575.285L340.319,574.285L340.288,573.254L342.163,573.254C342.189,572.438 342.213,572.249 341.225,571.379L340.257,571.348L340.225,560.317C339.829,556.742 340.101,549.767 339.257,547.317C339.14,550.284 338.636,557.878 338.226,560.317L338.288,566.411L334.194,566.348L334.194,556.379L335.194,556.379L335.163,555.348L336.257,555.348L336.226,554.442L337.038,554.473L337.069,543.192L335.788,531.567L334.101,543.286L334.132,546.192L333.069,546.224L332.726,542.005L332.101,541.505L331.444,534.567L331.024,534.227L330.774,525.259L330.337,524.259L329.22,505.94ZM350.939,565.471C351.122,565.475 351.312,565.498 351.47,565.502L351.47,566.221L349.876,566.221C349.831,565.543 350.39,565.46 350.939,565.471L350.939,565.471ZM352.939,565.471C353.57,565.453 354.625,565.285 354.564,566.19L352.908,566.221L352.939,565.471L352.939,565.471ZM349.877,567.284L351.439,567.284L351.439,568.034C350.808,568.052 349.816,568.188 349.877,567.284ZM352.939,567.284L354.564,567.284C354.625,568.188 353.602,568.052 352.97,568.034L352.939,567.284Z" style="fill:none;fill-rule:nonzero;stroke:white;stroke-width:0.38px;stroke-linejoin:miter;stroke-miterlimit:4;"/>
                <path id="path3802" d="M435.18,667.1L435.165,653.454L437.223,653.366L436.988,630.351L435.311,630.439C435.592,628.564 436.458,628.89 437.165,628.293L437.076,626.336L443.503,613.616L451.253,613.616L454.622,622.411L455.885,622.234L463.003,606.115L470.503,606.115L474.061,615.204L476.049,615.204L476.049,608.646L475.226,608.542C474.946,607.362 473.976,606.872 473.006,606.372L475.256,606.372L486.006,592.872L486.124,590.299C484.982,590.648 484.624,589.738 484.286,588.796L484.225,577.273L485.402,565.338C485.402,565.338 485.963,571.778 486.725,574.886C487.559,575.076 488.298,574.813 488.298,574.813L491.947,537.209L495.445,574.931L497.167,575.02L499.066,565.34L499.963,577.022C500.172,581.003 500.05,584.988 500.005,588.971C499.812,589.677 499.601,590.464 498.255,590.709L498.167,593.224L507.684,606.187L510.434,606.245C508.66,606.856 508.282,608.256 508.283,608.506L507.274,608.678L507.414,652.357L518.828,652.342L518.99,637.223L518.167,637.223C518.386,636.502 517.824,635.775 519.24,635.869L519.432,634.488C520.457,632.7 521.759,632.023 523.255,632.119L523.182,629.309C522.057,629.56 522.101,627.94 522.124,626.354L521.432,625.266C520.906,624.419 520.738,623.458 520.667,622.824C520.511,621.445 520.238,620.06 521.255,619.619L522.49,619.369L522.505,617.619C520.198,617.84 521.01,613.923 521.343,613.412L522.152,613.427L522.182,610.501C522.325,608.768 523.281,607.843 525.063,607.281L525.255,605.619C522.375,604.631 523.65,600.303 525.285,600.339C526.644,600.369 527.753,600.854 527.697,602.283C527.635,603.885 527.683,604.825 527.151,605.488C530.251,606.34 529.496,607.835 530.005,609.119L529.99,615.354C531.317,615.835 532.211,615.503 532.005,617.948L533.063,617.958L533.093,614.576C533.57,612.853 534.268,613.567 534.975,614.384C535.783,614.734 536.055,615.604 536.167,617.283C537.61,621.261 537.842,625.029 536.255,627.369C535.644,628.332 534.181,628.621 533.341,628.415L533.356,633.223C535.03,633.244 535.74,633.908 536.005,634.869L536.005,667.119L435.18,667.1Z" style="fill:none;fill-rule:nonzero;stroke:white;stroke-width:0.38px;stroke-linejoin:miter;stroke-miterlimit:4;"/>
            </g>
        </g>
    </g>
</svg>
