<?xml version="1.0" encoding="UTF-8" standalone="no"?>
<!DOCTYPE svg PUBLIC "-//W3C//DTD SVG 1.1//EN" "http://www.w3.org/Graphics/SVG/1.1/DTD/svg11.dtd">
<svg width="100%" height="100%" viewBox="0 0 1223 322" version="1.1" xmlns="http://www.w3.org/2000/svg" xmlns:xlink="http://www.w3.org/1999/xlink" xml:space="preserve" xmlns:serif="http://www.serif.com/" style="fill-rule:evenodd;clip-rule:evenodd;stroke-linejoin:round;stroke-miterlimit:2;">
    <g transform="matrix(1,0,0,1,-8826,-2424)">
        <g transform="matrix(1,0,0,0.883586,322,200)">
            <g transform="matrix(1,0,0,2.45055,7124.25,-86.1226)">
                <g opacity="0.15">
                    <g transform="matrix(1,0,0,0.461836,1119.53,957.148)">
                        <path d="M661.2,462.3L647.7,462.3L647.7,436.2L655.8,436.2C657.2,436.2 658.3,435.1 658.3,433.7L658.3,428.1C658.3,426.7 657.2,425.6 655.8,425.6L647.7,425.6L647.7,422.1L655.8,422.1C657.2,422.1 658.3,421 658.3,419.6L658.3,414C658.3,412.6 657.2,411.5 655.8,411.5L647.7,411.5L647.7,403.2L654.7,403.2C655.4,403.2 655.9,402.7 655.9,402C655.9,401.3 655.4,400.8 654.7,400.8L647.7,400.8L647.7,327.2L644.9,322.2L643.7,276.1L642.1,276.1L641.1,322.4L638.3,326.7L638.3,394.4L633.3,394.4L633.3,384.8C633.3,384.8 633.1,382.7 631.2,382.4C629.3,382.1 628.9,385 628.9,385L628.9,400L625.9,400L625.9,402.6L628.2,404.9L628.2,547.2L633.6,547.2L633.6,436.4L639.3,436.4L639.3,547L647.6,547L647.6,475.7L661.1,475.7C662.5,475.7 663.6,474.6 663.6,473.2L663.6,464.8C663.7,463.5 662.6,462.3 661.2,462.3Z" style="fill:none;fill-rule:nonzero;stroke:rgb(5,52,122);stroke-width:3px;"/>
                        <path d="M638.8,401.8C638.8,402.3 638.4,402.8 637.8,402.8L627.4,402.8C626.9,402.8 626.4,402.4 626.4,401.8C626.4,401.3 626.8,400.8 627.4,400.8L637.8,400.8C638.4,400.8 638.8,401.2 638.8,401.8Z" style="fill:none;fill-rule:nonzero;stroke:rgb(5,52,122);stroke-width:3px;stroke-linecap:round;stroke-miterlimit:10;"/>
                        <path d="M661.2,462.3L647.7,462.3L647.7,436.2L655.8,436.2C657.2,436.2 658.3,435.1 658.3,433.7L658.3,428.1C658.3,426.7 657.2,425.6 655.8,425.6L647.7,425.6L647.7,422.1L655.8,422.1C657.2,422.1 658.3,421 658.3,419.6L658.3,414C658.3,412.6 657.2,411.5 655.8,411.5L647.7,411.5L647.7,403.2L654.7,403.2C655.4,403.2 655.9,402.7 655.9,402C655.9,401.3 655.4,400.8 654.7,400.8L647.7,400.8L647.7,327.2L644.9,322.2L643.7,276.1L642.1,276.1L641.1,322.4L638.3,326.7L638.3,394.4L633.3,394.4L633.3,384.8C633.3,384.8 633.1,382.7 631.2,382.4C629.3,382.1 628.9,385 628.9,385L628.9,400L625.9,400L625.9,402.6L628.2,404.9L628.2,547.2L633.6,547.2L633.6,436.4L639.3,436.4L639.3,547L647.6,547L647.6,475.7L661.1,475.7C662.5,475.7 663.6,474.6 663.6,473.2L663.6,464.8C663.7,463.5 662.6,462.3 661.2,462.3Z" style="fill:none;fill-rule:nonzero;stroke:rgb(5,52,122);stroke-width:3px;stroke-linecap:round;stroke-miterlimit:10;"/>
                        <path d="M638.3,386.1L647.7,386.1" style="fill:none;fill-rule:nonzero;stroke:rgb(5,52,122);stroke-width:3px;stroke-linecap:round;stroke-miterlimit:10;"/>
                        <g>
                            <path d="M641.4,473.2C641.4,474.6 640.3,475.7 638.9,475.7L623.9,475.7C622.5,475.7 621.4,474.6 621.4,473.2L621.4,463.6C621.4,462.2 622.5,461.1 623.9,461.1L638.9,461.1C640.3,461.1 641.4,462.2 641.4,463.6L641.4,473.2Z" style="fill:none;fill-rule:nonzero;stroke:rgb(5,52,122);stroke-width:3px;"/>
                            <path d="M640.6,419.7C640.6,421.1 639.5,422.2 638.1,422.2L624.8,422.2C623.4,422.2 622.3,421.1 622.3,419.7L622.3,413C622.3,411.6 623.4,410.5 624.8,410.5L638.1,410.5C639.5,410.5 640.6,411.6 640.6,413L640.6,419.7Z" style="fill:none;fill-rule:nonzero;stroke:rgb(5,52,122);stroke-width:3px;"/>
                            <path d="M640.6,434.3C640.6,435.7 639.5,436.8 638.1,436.8L624.8,436.8C623.4,436.8 622.3,435.7 622.3,434.3L622.3,427.6C622.3,426.2 623.4,425.1 624.8,425.1L638.1,425.1C639.5,425.1 640.6,426.2 640.6,427.6L640.6,434.3Z" style="fill:none;fill-rule:nonzero;stroke:rgb(5,52,122);stroke-width:3px;"/>
                        </g>
                        <path d="M647.7,327.2L638.3,327.2" style="fill:none;fill-rule:nonzero;stroke:rgb(5,52,122);stroke-width:3px;stroke-linecap:round;stroke-miterlimit:10;"/>
                        <g>
                            <path d="M641.4,473.2C641.4,474.6 640.3,475.7 638.9,475.7L623.9,475.7C622.5,475.7 621.4,474.6 621.4,473.2L621.4,463.6C621.4,462.2 622.5,461.1 623.9,461.1L638.9,461.1C640.3,461.1 641.4,462.2 641.4,463.6L641.4,473.2Z" style="fill:none;fill-rule:nonzero;stroke:rgb(5,52,122);stroke-width:3px;stroke-linecap:round;stroke-miterlimit:10;"/>
                            <path d="M640.6,419.7C640.6,421.1 639.5,422.2 638.1,422.2L624.8,422.2C623.4,422.2 622.3,421.1 622.3,419.7L622.3,413C622.3,411.6 623.4,410.5 624.8,410.5L638.1,410.5C639.5,410.5 640.6,411.6 640.6,413L640.6,419.7Z" style="fill:none;fill-rule:nonzero;stroke:rgb(5,52,122);stroke-width:3px;stroke-linecap:round;stroke-miterlimit:10;"/>
                            <path d="M640.6,434.3C640.6,435.7 639.5,436.8 638.1,436.8L624.8,436.8C623.4,436.8 622.3,435.7 622.3,434.3L622.3,427.6C622.3,426.2 623.4,425.1 624.8,425.1L638.1,425.1C639.5,425.1 640.6,426.2 640.6,427.6L640.6,434.3Z" style="fill:none;fill-rule:nonzero;stroke:rgb(5,52,122);stroke-width:3px;stroke-linecap:round;stroke-miterlimit:10;"/>
                        </g>
                    </g>
                    <g transform="matrix(1,0,0,0.377677,1370.53,1003.01)">
                        <path d="M626,517.4L905.3,517.4L905.3,533.2C905.3,533.2 892.2,533.8 892.8,533.2C893.4,532.6 869.6,512.5 846,533.5L824.8,533.5C824.8,533.5 804,512.3 775.8,533.5L754.3,533.5C754.3,533.5 733.3,513.3 706.5,533.5L684,533.5C684,533.5 662.8,510.3 637.5,533.5L626,533.5L626,517.4Z" style="fill:none;fill-rule:nonzero;stroke:rgb(5,52,122);stroke-width:3.28px;"/>
                        <path d="M603,460.5L603,547.7L626.2,547.7L626.2,460.5L603,460.5ZM611.9,492.3L609.6,492.3L609.6,486.5L611.9,486.5L611.9,492.3ZM611.9,472.8L609.6,472.8L609.6,467L611.9,467L611.9,472.8ZM620,492.3L617.7,492.3L617.7,486.5L620,486.5L620,492.3ZM620,472.8L617.7,472.8L617.7,467L620,467L620,472.8Z" style="fill:none;fill-rule:nonzero;stroke:rgb(5,52,122);stroke-width:3.28px;"/>
                        <path d="M626,517.4L905.3,517.4L905.3,533.2C905.3,533.2 892.2,533.8 892.8,533.2C893.4,532.6 869.6,512.5 846,533.5L824.8,533.5C824.8,533.5 804,512.3 775.8,533.5L754.3,533.5C754.3,533.5 733.3,513.3 706.5,533.5L684,533.5C684,533.5 662.8,510.3 637.5,533.5L626,533.5L626,517.4Z" style="fill:none;fill-rule:nonzero;stroke:rgb(5,52,122);stroke-width:3px;stroke-linecap:round;stroke-miterlimit:10;"/>
                        <rect x="600.5" y="453.2" width="28.2" height="7.3" style="fill:none;stroke:rgb(5,52,122);stroke-width:3.28px;"/>
                        <path d="M603,460.5L603,547.7L626.2,547.7L626.2,460.5L603,460.5ZM611.9,492.3L609.6,492.3L609.6,486.5L611.9,486.5L611.9,492.3ZM611.9,472.8L609.6,472.8L609.6,467L611.9,467L611.9,472.8ZM620,492.3L617.7,492.3L617.7,486.5L620,486.5L620,492.3ZM620,472.8L617.7,472.8L617.7,467L620,467L620,472.8Z" style="fill:none;fill-rule:nonzero;stroke:rgb(5,52,122);stroke-width:3px;stroke-linecap:round;stroke-miterlimit:10;"/>
                        <rect x="600.5" y="453.2" width="28.2" height="7.3" style="fill:none;stroke:rgb(5,52,122);stroke-width:3px;stroke-linecap:round;stroke-miterlimit:10;"/>
                        <path d="M607.3,453.2L613.1,423.7L615.1,423.7L620.9,453.2L607.3,453.2Z" style="fill:none;fill-rule:nonzero;stroke:rgb(5,52,122);stroke-width:3px;stroke-linecap:round;stroke-miterlimit:10;"/>
                        <path d="M602.6,453.2L604.2,432L606,453.2L602.6,453.2Z" style="fill:none;fill-rule:nonzero;stroke:rgb(5,52,122);stroke-width:3px;stroke-linecap:round;stroke-miterlimit:10;"/>
                        <rect x="684.1" y="533.4" width="22.8" height="10.2" style="fill:none;stroke:rgb(5,52,122);stroke-width:3.28px;"/>
                        <rect x="626.1" y="533.4" width="11.4" height="10.2" style="fill:none;stroke:rgb(5,52,122);stroke-width:3.28px;"/>
                        <rect x="681.7" y="543.7" width="27.5" height="4" style="fill:none;stroke:rgb(5,52,122);stroke-width:3.28px;"/>
                        <rect x="626.1" y="543.7" width="14.6" height="4" style="fill:none;stroke:rgb(5,52,122);stroke-width:3.28px;"/>
                        <rect x="894" y="533.4" width="11.4" height="10.2" style="fill:none;stroke:rgb(5,52,122);stroke-width:3.28px;"/>
                        <rect x="890.8" y="543.7" width="14.6" height="4" style="fill:none;stroke:rgb(5,52,122);stroke-width:3.28px;"/>
                        <rect x="754.4" y="533.4" width="22.8" height="10.2" style="fill:none;stroke:rgb(5,52,122);stroke-width:3.28px;"/>
                        <rect x="752" y="543.7" width="27.5" height="4" style="fill:none;stroke:rgb(5,52,122);stroke-width:3.28px;"/>
                        <rect x="824.6" y="533.4" width="22.8" height="10.2" style="fill:none;stroke:rgb(5,52,122);stroke-width:3.28px;"/>
                        <rect x="822.2" y="543.7" width="27.5" height="4" style="fill:none;stroke:rgb(5,52,122);stroke-width:3.28px;"/>
                        <rect x="894" y="533.4" width="11.4" height="10.2" style="fill:none;stroke:rgb(5,52,122);stroke-opacity:0.5;stroke-width:3.28px;"/>
                        <rect x="890.8" y="543.7" width="14.6" height="4" style="fill:none;stroke:rgb(5,52,122);stroke-opacity:0.5;stroke-width:3.28px;"/>
                        <rect x="824.6" y="533.4" width="22.8" height="10.2" style="fill:none;stroke:rgb(5,52,122);stroke-opacity:0.5;stroke-width:3.28px;"/>
                        <rect x="822.2" y="543.7" width="27.5" height="4" style="fill:none;stroke:rgb(5,52,122);stroke-opacity:0.5;stroke-width:3.28px;"/>
                        <path d="M623.6,453.2L625.3,432L627,453.2L623.6,453.2Z" style="fill:none;fill-rule:nonzero;stroke:rgb(5,52,122);stroke-width:3px;stroke-linecap:round;stroke-miterlimit:10;"/>
                        <path d="M607.3,453.2L613.1,423.7L615.1,423.7L620.9,453.2L607.3,453.2Z" style="fill:none;fill-rule:nonzero;stroke:rgb(5,52,122);stroke-width:3.28px;"/>
                        <path d="M602.6,453.2L604.2,432L606,453.2L602.6,453.2Z" style="fill:none;fill-rule:nonzero;stroke:rgb(5,52,122);stroke-width:3.28px;"/>
                        <path d="M623.6,453.2L625.3,432L627,453.2L623.6,453.2Z" style="fill:none;fill-rule:nonzero;stroke:rgb(5,52,122);stroke-width:3.28px;"/>
                        <rect x="684.1" y="533.4" width="22.8" height="10.2" style="fill:none;stroke:rgb(5,52,122);stroke-width:3px;stroke-linecap:round;stroke-miterlimit:10;"/>
                        <rect x="626.1" y="533.4" width="11.4" height="10.2" style="fill:none;stroke:rgb(5,52,122);stroke-width:3px;stroke-linecap:round;stroke-miterlimit:10;"/>
                        <rect x="681.7" y="543.7" width="27.5" height="4" style="fill:none;stroke:rgb(5,52,122);stroke-width:3px;stroke-linecap:round;stroke-miterlimit:10;"/>
                        <rect x="626.1" y="543.7" width="14.6" height="4" style="fill:none;stroke:rgb(5,52,122);stroke-width:3px;stroke-linecap:round;stroke-miterlimit:10;"/>
                        <rect x="894" y="533.4" width="11.4" height="10.2" style="fill:none;stroke:rgb(5,52,122);stroke-width:3px;stroke-linecap:round;stroke-miterlimit:10;"/>
                        <rect x="890.8" y="543.7" width="14.6" height="4" style="fill:none;stroke:rgb(5,52,122);stroke-width:3px;stroke-linecap:round;stroke-miterlimit:10;"/>
                        <rect x="754.4" y="533.4" width="22.8" height="10.2" style="fill:none;stroke:rgb(5,52,122);stroke-width:3px;stroke-linecap:round;stroke-miterlimit:10;"/>
                        <rect x="752" y="543.7" width="27.5" height="4" style="fill:none;stroke:rgb(5,52,122);stroke-width:3px;stroke-linecap:round;stroke-miterlimit:10;"/>
                        <rect x="824.6" y="533.4" width="22.8" height="10.2" style="fill:none;stroke:rgb(5,52,122);stroke-width:3px;stroke-linecap:round;stroke-miterlimit:10;"/>
                        <rect x="822.2" y="543.7" width="27.5" height="4" style="fill:none;stroke:rgb(5,52,122);stroke-width:3px;stroke-linecap:round;stroke-miterlimit:10;"/>
                        <rect x="600.5" y="476.2" width="28.2" height="2.7" style="fill:none;stroke:rgb(5,52,122);stroke-width:3.28px;"/>
                        <rect x="600.5" y="494.2" width="28.2" height="2.7" style="fill:none;stroke:rgb(5,52,122);stroke-width:3.28px;"/>
                        <rect x="600.5" y="476.2" width="28.2" height="2.7" style="fill:none;stroke:rgb(5,52,122);stroke-width:3px;stroke-linecap:round;stroke-miterlimit:10;"/>
                        <rect x="600.5" y="494.2" width="28.2" height="2.7" style="fill:none;stroke:rgb(5,52,122);stroke-width:3px;stroke-linecap:round;stroke-miterlimit:10;"/>
                        <path d="M906,460.5L906,547.7L929.2,547.7L929.2,460.5L906,460.5ZM914.9,492.3L912.6,492.3L912.6,486.5L914.9,486.5L914.9,492.3ZM914.9,472.8L912.6,472.8L912.6,467L914.9,467L914.9,472.8ZM923,492.3L920.7,492.3L920.7,486.5L923,486.5L923,492.3ZM923,472.8L920.7,472.8L920.7,467L923,467L923,472.8Z" style="fill:none;fill-rule:nonzero;stroke:rgb(5,52,122);stroke-width:3.28px;"/>
                        <path d="M906,460.5L906,547.7L929.2,547.7L929.2,460.5L906,460.5ZM914.9,492.3L912.6,492.3L912.6,486.5L914.9,486.5L914.9,492.3ZM914.9,472.8L912.6,472.8L912.6,467L914.9,467L914.9,472.8ZM923,492.3L920.7,492.3L920.7,486.5L923,486.5L923,492.3ZM923,472.8L920.7,472.8L920.7,467L923,467L923,472.8Z" style="fill:none;fill-rule:nonzero;stroke:rgb(5,52,122);stroke-opacity:0.5;stroke-width:3.28px;"/>
                        <rect x="903.5" y="453.2" width="28.2" height="7.3" style="fill:none;stroke:rgb(5,52,122);stroke-width:3.28px;"/>
                        <path d="M906,460.5L906,547.7L929.2,547.7L929.2,460.5L906,460.5ZM914.9,492.3L912.6,492.3L912.6,486.5L914.9,486.5L914.9,492.3ZM914.9,472.8L912.6,472.8L912.6,467L914.9,467L914.9,472.8ZM923,492.3L920.7,492.3L920.7,486.5L923,486.5L923,492.3ZM923,472.8L920.7,472.8L920.7,467L923,467L923,472.8Z" style="fill:none;fill-rule:nonzero;stroke:rgb(5,52,122);stroke-width:3px;stroke-linecap:round;stroke-miterlimit:10;"/>
                        <rect x="903.5" y="453.2" width="28.2" height="7.3" style="fill:none;stroke:rgb(5,52,122);stroke-width:3px;stroke-linecap:round;stroke-miterlimit:10;"/>
                        <path d="M910.3,453.2L916.1,423.7L918.1,423.7L923.9,453.2L910.3,453.2Z" style="fill:none;fill-rule:nonzero;stroke:rgb(5,52,122);stroke-width:3px;stroke-linecap:round;stroke-miterlimit:10;"/>
                        <path d="M905.6,453.2L907.2,432L909,453.2L905.6,453.2Z" style="fill:none;fill-rule:nonzero;stroke:rgb(5,52,122);stroke-width:3px;stroke-linecap:round;stroke-miterlimit:10;"/>
                        <path d="M926.6,453.2L928.3,432L930,453.2L926.6,453.2Z" style="fill:none;fill-rule:nonzero;stroke:rgb(5,52,122);stroke-width:3px;stroke-linecap:round;stroke-miterlimit:10;"/>
                        <path d="M910.3,453.2L916.1,423.7L918.1,423.7L923.9,453.2L910.3,453.2Z" style="fill:none;fill-rule:nonzero;stroke:rgb(5,52,122);stroke-width:3.28px;"/>
                        <path d="M905.6,453.2L907.2,432L909,453.2L905.6,453.2Z" style="fill:none;fill-rule:nonzero;stroke:rgb(5,52,122);stroke-width:3.28px;"/>
                        <path d="M926.6,453.2L928.3,432L930,453.2L926.6,453.2Z" style="fill:none;fill-rule:nonzero;stroke:rgb(5,52,122);stroke-width:3.28px;"/>
                        <rect x="903.5" y="476.2" width="28.2" height="2.7" style="fill:none;stroke:rgb(5,52,122);stroke-width:3.28px;"/>
                        <rect x="903.5" y="494.2" width="28.2" height="2.7" style="fill:none;stroke:rgb(5,52,122);stroke-width:3.28px;"/>
                        <rect x="903.5" y="453.2" width="28.2" height="7.3" style="fill:none;stroke:rgb(5,52,122);stroke-opacity:0.5;stroke-width:3.28px;"/>
                        <rect x="903.5" y="476.2" width="28.2" height="2.7" style="fill:none;stroke:rgb(5,52,122);stroke-opacity:0.5;stroke-width:3.28px;"/>
                        <rect x="903.5" y="494.2" width="28.2" height="2.7" style="fill:none;stroke:rgb(5,52,122);stroke-opacity:0.5;stroke-width:3.28px;"/>
                        <rect x="903.5" y="476.2" width="28.2" height="2.7" style="fill:none;stroke:rgb(5,52,122);stroke-width:3px;stroke-linecap:round;stroke-miterlimit:10;"/>
                        <rect x="903.5" y="494.2" width="28.2" height="2.7" style="fill:none;stroke:rgb(5,52,122);stroke-width:3px;stroke-linecap:round;stroke-miterlimit:10;"/>
                    </g>
                    <g transform="matrix(-1,0,0,0.461836,3528.39,955.763)">
                        <path d="M1167.5,462.4L1167.5,454.4C1161.8,453.7 1162.2,446.3 1162.2,446.3L1148.5,435.5L1134.3,446.2L1134.3,450.4L1132.2,450.4L1127.6,448.2L1127.6,446.2L1128.7,446.2L1128.7,444.8L1118.7,439.5L1112.1,443.7L1092,443.7C1092,443.7 1090.5,439.4 1087.3,439.3C1084.1,439.2 1081.7,442.2 1081.7,442.2C1081.7,442.2 1071.4,442.3 1071.4,442.2C1071.5,442.1 1071.4,420.1 1071.4,420.1L1064.5,412L1064.5,410.9L1067.9,408.4L1067.9,399.4L1066,399.4L1066,347.4L1068.4,344.3L1068.4,329.8L1065.6,297.3L1064.5,297.3L1061.6,328.4L1056.9,330.2L1055.6,319.5L1057.1,317.8L1057.1,315.4L1058.7,315.4L1058.7,311L1060.2,310L1060.2,308.5L1058.7,308.5L1058.7,304.6L1059.8,304.6L1059.8,302.6L1058.9,301.3C1058.9,301.3 1057.3,275.3 1057,275.3C1056.8,275.3 1053.6,299.2 1053.6,299.2L1046,254L1046,233L1044.6,233L1044.6,254.2L1037.9,299.2L1034.6,274.9L1032.7,302L1031.4,303.3L1031.4,304.8L1032.7,304.8L1032.7,308.6L1031.6,308.6L1031.6,309.7L1032.3,310.4L1032.3,315.6L1034.1,315.6L1034.1,318L1035.7,318.8L1034.6,330.4L1030.1,329.7L1027,297L1025.9,297L1023.5,329.9L1023.5,343.8L1027,346.2L1027,381L1024.3,369.6L1023.2,369.8L1023.2,386.5L1021.3,382.3L1020.5,359.7L1019.4,359.7L1018.4,375.9L1016.3,371.9L1015.7,350.7L1014.7,350.7L1013.6,365.3L1011.2,361.1L1011.2,344.7L1010.1,344.7L1008.9,355.5L1007.3,351.3L1007.3,346.6L1006,346.6L1006,332L1004.4,332L1004.4,333.3L1005.6,333.3L1005.6,346.4L1004.8,346.4L1004.8,351.3L1003.2,354.5L1001.6,345L1000.7,345L1000.7,360.7L998.5,364.9L997.3,350.2L996.5,350.2L996.1,371.2L993.7,375.1L992.2,359.6L991.4,359.6L991,382.8L987.8,386.2L987.8,369.3L987,369.3L984.7,377.2L984.7,357.6L987.7,357.6L985.7,355.8L985.7,346.5L988.9,343.7L988.9,326.6L985.2,296.6L981.6,327.8L977.5,329.9L975.7,319.2L979.1,313.9L979.1,310.4L980.4,310.4L980.4,308.2L979,308.2L979,303.4L980.2,303.4L980.2,301.5L979.2,301.5L977,274.3C977,274.3 973.3,297.5 973.3,297.7C973.2,297.9 966.1,253.7 966.1,253.7L966.1,233.5L965.3,233.5L965.3,253.7L958.3,297L954.6,274.7L953,302.5L951.7,302.5L951.7,304.2L952.6,304.2L952.6,308.6L951.7,308.6L951.7,310.8L952.5,310.8L952.5,314.5L955.9,319L954.5,330.1L951,329.3L949.9,325.1L946.8,297L942.9,326.8L942.9,343.8L946,346.2L946,353.8L944.3,355.9L944.3,358.3L946.8,358.3L946.8,399.3L943.6,399.3L943.6,408.1L946.8,410.6L946.8,412.7L940.5,420.1L940.5,444.5L938,448L938,470.3C937,468.5 935.5,468.3 935.5,468.3L935.5,464.4L933.4,464.4L933.4,468.5C928.9,468.5 927.9,474.3 927.9,474.3L929.7,474.3L929.7,487.5L927.9,489.3L927.9,550.1L938.2,550.1L938.2,532.8C938.2,529.3 941,526.5 944.5,526.5C948,526.5 950.8,529.3 950.8,532.8L950.8,550.1L962,550.1L962,532.8C962,529.3 964.8,526.5 968.3,526.5C971.8,526.5 974.6,529.3 974.6,532.8L974.6,550.1L985.8,550.1L985.8,532.8C985.8,529.3 988.6,526.5 992.1,526.5C995.6,526.5 998.4,529.3 998.4,532.8L998.4,550.1L1009.6,550.1L1009.6,532.8C1009.6,529.3 1012.4,526.5 1015.9,526.5C1019.4,526.5 1022.2,529.3 1022.2,532.8L1022.2,550.1L1041.3,550.1L1041.3,532.8C1041.3,529.3 1044.1,526.5 1047.6,526.5C1051.1,526.5 1053.9,529.3 1053.9,532.8L1053.9,550.1L1060.3,550.1L1060.3,532.8C1060.3,529.3 1063.1,526.5 1066.6,526.5C1070.1,526.5 1072.9,529.3 1072.9,532.8L1072.9,550.1L1083.1,550.1L1083.1,533.1C1083.1,529.5 1087.2,526.5 1092.3,526.5C1097.4,526.5 1101.5,529.4 1101.5,533.1L1101.5,550.1L1110.8,550.1L1110.8,533.1C1110.8,529.5 1114.9,526.5 1120,526.5C1125.1,526.5 1129.2,529.4 1129.2,533.1L1129.2,550.1L1145.4,550.1L1145.4,535.4C1145.4,531.9 1148.2,529.1 1151.7,529.1C1155.2,529.1 1158,531.9 1158,535.4L1158,550.1L1167.5,550.1L1167.5,466L1169.9,462.3L1167.5,462.3L1167.5,462.4ZM942.5,516L935.6,516L935.6,503.4L942.5,503.4L942.5,516ZM956.8,516L949.9,516L949.9,503.4L956.8,503.4L956.8,516ZM962.7,360.6C962.7,359.1 963.9,357.9 965.4,357.9C966.9,357.9 968.1,359.1 968.1,360.6L968.1,384.7L962.8,384.7L962.8,360.6L962.7,360.6ZM961.7,400.8L961.7,398.1C961.7,397.1 962.5,396.3 963.5,396.3C964.5,396.3 965.3,397.1 965.3,398.1L965.3,400.8L961.7,400.8ZM971.2,516L964.3,516L964.3,503.4L971.2,503.4L971.2,516ZM989,499.3L989,516L974.5,516L974.5,499.3C974.5,493.8 981.7,490.8 981.7,490.8C989.2,494.1 989,499.3 989,499.3ZM1000,516L993.1,516L993.1,503.4L1000,503.4L1000,516ZM1014.4,516L1007.5,516L1007.5,503.4L1014.4,503.4L1014.4,516ZM1019.6,460.5C1018.9,460.1 1017.3,459.8 1017.3,459.8L1017.3,455.5L1016,455.5L1016,460.1C1012.1,460.8 1011,464.9 1011,464.9L1011,457.2L1012.5,457.2C1012.2,451.7 1007.4,450.9 1007.4,450.9L1007.4,447L1006,447L1006,451.1C1001.2,452.3 1001.4,457.2 1001.4,457.2L1003.1,457.2L1003.1,464.9C1001.9,461.6 997.2,459.9 997.2,459.9L997.2,455.9L996.2,455.9L996.2,460C994.8,460 992.5,461.3 992.5,461.3L992.5,431.6C992.5,422.9 1005.9,418 1005.9,418C1018.7,421.4 1019.7,431.3 1019.7,431.3L1019.7,460.5L1019.6,460.5ZM1028.7,516L1021.8,516L1021.8,503.4L1028.7,503.4L1028.7,516ZM1055.1,463.5L1060.4,463.5L1060.4,469.2L1055.1,469.2L1055.1,463.5ZM1049.9,398.1L1049.9,400.8L1045.7,400.8L1045.7,398.1C1045.7,396.9 1046.6,396 1047.8,396C1049,396 1049.9,396.9 1049.9,398.1ZM1043.7,361.1C1043.7,359.7 1044.8,358.6 1046.2,358.6C1047.6,358.6 1048.7,359.7 1048.7,361.1L1048.7,384.2L1043.6,384.2L1043.6,361.1L1043.7,361.1ZM1042.9,463.5L1048.2,463.5L1048.2,469.2L1042.9,469.2L1042.9,463.5ZM1047.6,512.5L1042.3,512.5L1042.3,500.9L1047.6,500.9L1047.6,512.5ZM1049.5,498.4C1049.4,498.5 1049.2,498.6 1049.1,498.6C1049,498.6 1048.8,498.5 1048.7,498.4C1045.4,495 1041.4,498.3 1041.2,498.4C1041,498.6 1040.6,498.6 1040.4,498.3C1040.2,498.1 1040.2,497.7 1040.5,497.5C1040.5,497.5 1045.4,493.4 1049.5,497.5C1049.7,497.9 1049.7,498.2 1049.5,498.4ZM1042.4,491L1042.4,479.4L1047.7,479.4L1047.7,491L1042.4,491ZM1049.5,476.9C1049.4,477 1049.2,477.1 1049.1,477.1C1049,477.1 1048.8,477 1048.7,476.9C1045.4,473.6 1041.4,476.8 1041.2,476.9C1041,477.1 1040.6,477.1 1040.4,476.8C1040.2,476.6 1040.2,476.2 1040.5,476C1040.5,476 1045.4,471.9 1049.5,476C1049.7,476.3 1049.7,476.6 1049.5,476.9ZM1049.1,453.4L1049.1,447.7L1054.4,447.7L1054.4,453.4L1049.1,453.4ZM1061.3,512.5L1056,512.5L1056,500.9L1061.3,500.9L1061.3,512.5ZM1063.2,498.4C1063.1,498.5 1062.9,498.6 1062.8,498.6C1062.7,498.6 1062.5,498.5 1062.4,498.4C1059.1,495 1055.1,498.3 1054.9,498.4C1054.7,498.6 1054.3,498.6 1054.1,498.3C1053.9,498.1 1053.9,497.7 1054.2,497.5C1054.3,497.5 1059.1,493.4 1063.2,497.5C1063.4,497.9 1063.4,498.2 1063.2,498.4ZM1056.1,491L1056.1,479.4L1061.4,479.4L1061.4,491L1056.1,491ZM1063.2,476.9C1063.1,477 1062.9,477.1 1062.8,477.1C1062.7,477.1 1062.5,477 1062.4,476.9C1059.1,473.6 1055.1,476.8 1054.9,476.9C1054.7,477.1 1054.3,477.1 1054.1,476.8C1053.9,476.6 1053.9,476.2 1054.2,476C1054.3,476 1059.1,471.9 1063.2,476C1063.4,476.3 1063.4,476.6 1063.2,476.9ZM1116.2,447.7L1121.5,447.7L1121.5,453.4L1116.2,453.4L1116.2,447.7ZM1104.2,463.5L1109.6,463.5L1109.6,469.2L1104.2,469.2L1104.2,463.5ZM1084.8,447.7L1090.1,447.7L1090.1,453.4L1084.8,453.4L1084.8,447.7ZM1067.4,463.5L1072.7,463.5L1072.7,469.2L1067.4,469.2L1067.4,463.5ZM1075,512.5L1069.7,512.5L1069.7,500.9L1075,500.9L1075,512.5ZM1076.9,498.4C1076.8,498.5 1076.6,498.6 1076.5,498.6C1076.4,498.6 1076.2,498.5 1076.1,498.4C1072.8,495 1068.8,498.3 1068.6,498.4C1068.4,498.6 1068,498.6 1067.8,498.3C1067.6,498 1067.6,497.7 1067.9,497.5C1067.9,497.5 1072.8,493.4 1076.9,497.5C1077.1,497.9 1077.1,498.2 1076.9,498.4ZM1069.8,491L1069.8,479.4L1075.1,479.4L1075.1,491L1069.8,491ZM1076.9,476.9C1076.8,477 1076.6,477.1 1076.5,477.1C1076.4,477.1 1076.2,477 1076.1,476.9C1072.8,473.6 1068.8,476.8 1068.6,476.9C1068.4,477.1 1068,477.1 1067.8,476.8C1067.6,476.6 1067.6,476.2 1067.9,476C1067.9,476 1072.8,471.9 1076.9,476C1077.1,476.3 1077.1,476.6 1076.9,476.9ZM1079.6,463.5L1084.9,463.5L1084.9,469.2L1079.6,469.2L1079.6,463.5ZM1088.7,512.5L1083.4,512.5L1083.4,500.9L1088.7,500.9L1088.7,512.5ZM1090.6,498.4C1090.5,498.5 1090.3,498.6 1090.2,498.6C1090.1,498.6 1089.9,498.5 1089.8,498.4C1086.5,495 1082.5,498.3 1082.3,498.4C1082.1,498.6 1081.7,498.6 1081.5,498.3C1081.3,498 1081.3,497.7 1081.6,497.5C1081.6,497.5 1086.5,493.4 1090.6,497.5C1090.8,497.9 1090.8,498.2 1090.6,498.4ZM1083.5,491L1083.5,479.4L1088.8,479.4L1088.8,491L1083.5,491ZM1090.6,476.9C1090.5,477 1090.3,477.1 1090.2,477.1C1090.1,477.1 1089.9,477 1089.8,476.9C1086.5,473.6 1082.5,476.8 1082.3,476.9C1082.1,477.1 1081.7,477.1 1081.5,476.8C1081.3,476.6 1081.3,476.2 1081.6,476C1081.6,476 1086.5,471.9 1090.6,476C1090.8,476.3 1090.8,476.6 1090.6,476.9ZM1091.9,469.2L1091.9,463.5L1097.2,463.5L1097.2,469.2L1091.9,469.2ZM1102.4,512.5L1097.1,512.5L1097.1,500.9L1102.4,500.9L1102.4,512.5ZM1104.3,498.4C1104.2,498.5 1104,498.6 1103.9,498.6C1103.8,498.6 1103.6,498.5 1103.5,498.4C1100.2,495 1096.2,498.3 1096,498.4C1095.8,498.6 1095.4,498.6 1095.2,498.3C1095,498.1 1095,497.7 1095.3,497.5C1095.4,497.5 1100.2,493.4 1104.3,497.5C1104.5,497.9 1104.5,498.2 1104.3,498.4ZM1097.2,491L1097.2,479.4L1102.5,479.4L1102.5,491L1097.2,491ZM1104.3,476.9C1104.2,477 1104,477.1 1103.9,477.1C1103.8,477.1 1103.6,477 1103.5,476.9C1100.2,473.6 1096.2,476.8 1096,476.9C1095.8,477.1 1095.4,477.1 1095.2,476.8C1095,476.6 1095,476.2 1095.3,476C1095.4,476 1100.2,471.9 1104.3,476C1104.5,476.3 1104.5,476.6 1104.3,476.9ZM1116.1,512.5L1110.8,512.5L1110.8,500.9L1116.1,500.9L1116.1,512.5ZM1118,498.4C1117.9,498.5 1117.7,498.6 1117.6,498.6C1117.5,498.6 1117.3,498.5 1117.2,498.4C1113.9,495 1109.9,498.3 1109.7,498.4C1109.5,498.6 1109.1,498.6 1108.9,498.3C1108.7,498 1108.7,497.7 1109,497.5C1109.1,497.5 1113.9,493.4 1118,497.5C1118.2,497.9 1118.2,498.2 1118,498.4ZM1110.9,491L1110.9,479.4L1116.2,479.4L1116.2,491L1110.9,491ZM1118,476.9C1117.9,477 1117.7,477.1 1117.6,477.1C1117.5,477.1 1117.3,477 1117.2,476.9C1113.9,473.6 1109.9,476.8 1109.7,476.9C1109.5,477.1 1109.1,477.1 1108.9,476.8C1108.7,476.6 1108.7,476.2 1109,476C1109.1,476 1113.9,471.9 1118,476C1118.2,476.3 1118.2,476.6 1118,476.9ZM1121.8,469.2L1116.5,469.2L1116.5,463.5L1121.8,463.5L1121.8,469.2ZM1129.8,512.5L1124.5,512.5L1124.5,500.9L1129.8,500.9L1129.8,512.5ZM1131.7,498.4C1131.6,498.5 1131.4,498.6 1131.3,498.6C1131.2,498.6 1131,498.5 1130.9,498.4C1127.6,495 1123.6,498.3 1123.4,498.4C1123.2,498.6 1122.8,498.6 1122.6,498.3C1122.4,498.1 1122.4,497.7 1122.7,497.5C1122.7,497.5 1127.6,493.4 1131.7,497.5C1131.9,497.9 1131.9,498.2 1131.7,498.4ZM1124.6,491L1124.6,479.4L1129.9,479.4L1129.9,491L1124.6,491ZM1131.7,476.9C1131.6,477 1131.4,477.1 1131.3,477.1C1131.2,477.1 1131,477 1130.9,476.9C1127.6,473.6 1123.6,476.8 1123.4,476.9C1123.2,477.1 1122.8,477.1 1122.6,476.8C1122.4,476.6 1122.4,476.2 1122.7,476C1122.7,476 1127.6,471.9 1131.7,476C1131.9,476.3 1131.9,476.6 1131.7,476.9ZM1153.1,467L1158.4,467L1158.4,473.7L1153.1,473.7L1153.1,467ZM1140.1,515.2L1136.4,515.2L1136.4,503.6L1140.1,503.6L1140.1,515.2ZM1140.1,493.5L1136.4,493.5L1136.4,481.9L1140.1,481.9L1140.1,493.5ZM1140.1,473.7L1136.4,473.7L1136.4,467L1140.1,467L1140.1,473.7ZM1145.6,457.4L1145.6,451.7L1150.9,451.7L1150.9,457.4L1145.6,457.4ZM1158.4,515.2L1153.1,515.2L1153.1,503.6L1158.4,503.6L1158.4,515.2ZM1159.7,501.2C1159.6,501.3 1159.4,501.4 1159.3,501.4C1159.2,501.4 1159,501.3 1158.9,501.2C1155.6,497.8 1151.6,501.1 1151.4,501.2C1151.2,501.4 1150.8,501.4 1150.6,501.1C1150.4,500.9 1150.4,500.5 1150.7,500.3C1150.7,500.3 1155.6,496.2 1159.7,500.3C1159.9,500.6 1159.9,501 1159.7,501.2ZM1153.1,493.5L1153.1,481.9L1158.4,481.9L1158.4,493.5L1153.1,493.5ZM1160.3,479.7C1160.2,479.8 1160,479.9 1159.9,479.9C1159.8,479.9 1159.6,479.8 1159.5,479.7C1156.2,476.3 1152.2,479.6 1152,479.7C1151.8,479.9 1151.4,479.9 1151.2,479.6C1151,479.4 1151,479 1151.3,478.8C1151.3,478.8 1156.2,474.7 1160.3,478.8C1160.5,479.1 1160.5,479.4 1160.3,479.7Z" style="fill:none;fill-rule:nonzero;stroke:rgb(5,52,122);stroke-width:3px;"/>
                        <path d="M1068.6,344.3L1068.6,329.8L1065.8,297.3L1064.7,297.3L1061.8,328.4L1057.1,330.2L1055.8,319.5L1057.3,317.8L1057.3,315.4L1058.9,315.4L1058.9,311L1060.4,310L1060.4,308.5L1058.9,308.5L1058.9,304.6L1060,304.6L1060,302.6L1059.1,301.3C1059.1,301.3 1057.5,275.3 1057.2,275.3C1057,275.3 1053.8,299.2 1053.8,299.2L1046,254L1046,233L1044.6,233L1044.6,254.2L1037.9,299.2L1034.6,274.9L1032.7,302L1031.4,303.3L1031.4,304.8L1032.7,304.8L1032.7,308.6L1031.6,308.6L1031.6,309.7L1032.3,310.4L1032.3,315.6L1034.1,315.6L1034.1,318L1035.7,318.8L1034.6,330.4L1030.1,329.7L1027,297L1025.9,297L1023.5,329.9L1023.5,343.8L1027,346.2L1027,348L1066.2,348L1066.2,347.3L1068.6,344.3Z" style="fill:none;fill-rule:nonzero;stroke:rgb(5,52,122);stroke-width:3px;"/>
                        <path d="M985.5,346.7L988.7,343.9L988.7,326.8L985,296.8L981.4,328L977.3,330.1L975.5,319.4L978.9,314.1L978.9,310.6L980.2,310.6L980.2,308.4L979,308.4L979,303.6L980.2,303.6L980.2,301.7L979.2,301.7L977,274.5C977,274.5 973.3,297.7 973.3,297.9C973.2,298.1 966.1,253.9 966.1,253.9L966.1,233.7L965.3,233.7L965.3,253.9L958.3,297.2L954.6,274.9L953,302.7L951.7,302.7L951.7,304.4L952.6,304.4L952.6,308.8L951.7,308.8L951.7,311L952.5,311L952.5,314.7L955.9,319.2L954.5,330.3L951,329.5L949.9,325.3L946.8,297.2L942.9,327L942.9,344L946,346.4L946,348.4L985.5,348.4L985.5,346.7Z" style="fill:none;fill-rule:nonzero;stroke:rgb(5,52,122);stroke-width:3px;"/>
                        <path d="M981.5,328.1L981.3,328.2L980.2,342.1C980.2,342.1 985.8,339.4 988.7,343.6L988.7,326.9L985,296.9L981.5,328.1Z" style="fill:none;fill-rule:nonzero;stroke:rgb(5,52,122);stroke-width:3px;"/>
                        <path d="M951,329.2L949.9,325L946.8,296.9L942.9,326.7L942.9,342.5C946.8,339.7 951,342 951,342L951,329.2Z" style="fill:none;fill-rule:nonzero;stroke:rgb(5,52,122);stroke-width:3px;"/>
                        <path d="M1061.7,328.1L1061.5,328.2L1060.4,343.1C1060.4,343.1 1066,339.3 1068.9,343.6L1068.9,326.9L1065.2,296.9L1061.7,328.1Z" style="fill:none;fill-rule:nonzero;stroke:rgb(5,52,122);stroke-width:3px;"/>
                        <path d="M1032.2,329.2L1031.1,325L1026.4,296.6L1023.5,326.8L1023.5,342.5C1027.4,339.7 1031.3,342.5 1031.3,342.5L1032.2,329.2Z" style="fill:none;fill-rule:nonzero;stroke:rgb(5,52,122);stroke-width:3px;"/>
                        <path d="M961.9,297.4L966.2,269.6L970.2,297.4L961.9,297.4Z" style="fill:none;fill-rule:nonzero;stroke:rgb(5,52,122);stroke-width:3px;"/>
                        <path d="M1026.4,344L1024.8,344.7L1027,346.2L1027,398.8L1036.9,398.8L1036.9,401.9L1055.1,401.9L1055.1,399.1L1066.2,399.1L1066.2,347.3L1067.8,345.2L1065.7,344L1063.8,344L1061.6,344.9L1030.7,344.9L1028.7,343.7L1026.4,344ZM1049.9,398.1L1049.9,400.8L1045.7,400.8L1045.7,398.1C1045.7,396.9 1046.6,396 1047.8,396C1049,396 1049.9,396.9 1049.9,398.1ZM1043.7,361.1C1043.7,359.7 1044.8,358.6 1046.2,358.6C1047.6,358.6 1048.7,359.7 1048.7,361.1L1048.7,384.2L1043.6,384.2L1043.6,361.1L1043.7,361.1Z" style="fill:none;fill-rule:nonzero;stroke:rgb(5,52,122);stroke-width:3px;"/>
                        <g>
                            <path d="M1004.7,346.5L1004.7,348.1L1007.3,348.1L1007.3,346.5L1005.9,346.5L1005.9,332L1004.3,332L1004.3,333.3L1005.5,333.3L1005.5,346.5L1004.7,346.5Z" style="fill:none;fill-rule:nonzero;stroke:rgb(5,52,122);stroke-width:3px;"/>
                            <path d="M1000.5,345L1000.5,348.1L1002,348.1L1001.5,345L1000.5,345Z" style="fill:none;fill-rule:nonzero;stroke:rgb(5,52,122);stroke-width:3px;"/>
                            <path d="M1010.1,344.7L1009.8,348.1L1011.2,348.1L1011.2,344.7L1010.1,344.7Z" style="fill:none;fill-rule:nonzero;stroke:rgb(5,52,122);stroke-width:3px;"/>
                        </g>
                        <path d="M974.7,399.2L984.5,399.2L984.5,357.8L987.5,357.8L985.5,356L985.5,346.7L987,345.4C984.6,343.2 981,345 981,345L949.8,345.1C949.8,345.1 949.7,343.9 947.1,343.7C946,343.6 945,344.2 944.3,344.8L946,346.1L946,353.7L944.3,355.8L944.3,358.2L946.8,358.2L946.8,398.9C946.8,399.6 956.3,399.2 956.3,399.2L956.3,402.3L974.7,402.3L974.7,399.2ZM965.4,400.8L961.7,400.8L961.7,398.1C961.7,397.1 962.5,396.3 963.5,396.3C964.5,396.3 965.3,397.1 965.3,398.1L965.3,400.8L965.4,400.8ZM968.2,384.7L962.8,384.7L962.8,360.6C962.8,359.1 964,357.9 965.5,357.9C967,357.9 968.2,359.1 968.2,360.6L968.2,384.7Z" style="fill:none;fill-rule:nonzero;stroke:rgb(5,52,122);stroke-width:3px;"/>
                        <path d="M1136.4,515.3L1136.4,455.3L1033.9,455.3L1033.9,515.3L1136.4,515.3ZM1104.2,463.5L1109.6,463.5L1109.6,469.2L1104.2,469.2L1104.2,463.5ZM1055.1,463.5L1060.4,463.5L1060.4,469.2L1055.1,469.2L1055.1,463.5ZM1042.9,463.5L1048.2,463.5L1048.2,469.2L1042.9,469.2L1042.9,463.5ZM1047.6,512.5L1042.3,512.5L1042.3,500.9L1047.6,500.9L1047.6,512.5ZM1049.5,498.4C1049.4,498.5 1049.2,498.6 1049.1,498.6C1049,498.6 1048.8,498.5 1048.7,498.4C1045.4,495 1041.4,498.3 1041.2,498.4C1041,498.6 1040.6,498.6 1040.4,498.3C1040.2,498.1 1040.2,497.7 1040.5,497.5C1040.5,497.5 1045.4,493.4 1049.5,497.5C1049.7,497.9 1049.7,498.2 1049.5,498.4ZM1042.4,491L1042.4,479.4L1047.7,479.4L1047.7,491L1042.4,491ZM1049.5,476.9C1049.4,477 1049.2,477.1 1049.1,477.1C1049,477.1 1048.8,477 1048.7,476.9C1045.4,473.6 1041.4,476.8 1041.2,476.9C1041,477.1 1040.6,477.1 1040.4,476.8C1040.2,476.6 1040.2,476.2 1040.5,476C1040.5,476 1045.4,471.9 1049.5,476C1049.7,476.3 1049.7,476.6 1049.5,476.9ZM1061.3,512.5L1056,512.5L1056,500.9L1061.3,500.9L1061.3,512.5ZM1063.2,498.4C1063.1,498.5 1062.9,498.6 1062.8,498.6C1062.7,498.6 1062.5,498.5 1062.4,498.4C1059.1,495 1055.1,498.3 1054.9,498.4C1054.7,498.6 1054.3,498.6 1054.1,498.3C1053.9,498.1 1053.9,497.7 1054.2,497.5C1054.3,497.5 1059.1,493.4 1063.2,497.5C1063.4,497.9 1063.4,498.2 1063.2,498.4ZM1056.1,491L1056.1,479.4L1061.4,479.4L1061.4,491L1056.1,491ZM1063.2,476.9C1063.1,477 1062.9,477.1 1062.8,477.1C1062.7,477.1 1062.5,477 1062.4,476.9C1059.1,473.6 1055.1,476.8 1054.9,476.9C1054.7,477.1 1054.3,477.1 1054.1,476.8C1053.9,476.6 1053.9,476.2 1054.2,476C1054.3,476 1059.1,471.9 1063.2,476C1063.4,476.3 1063.4,476.6 1063.2,476.9ZM1067.4,463.5L1072.7,463.5L1072.7,469.2L1067.4,469.2L1067.4,463.5ZM1075,512.5L1069.7,512.5L1069.7,500.9L1075,500.9L1075,512.5ZM1076.9,498.4C1076.8,498.5 1076.6,498.6 1076.5,498.6C1076.4,498.6 1076.2,498.5 1076.1,498.4C1072.8,495 1068.8,498.3 1068.6,498.4C1068.4,498.6 1068,498.6 1067.8,498.3C1067.6,498 1067.6,497.7 1067.9,497.5C1067.9,497.5 1072.8,493.4 1076.9,497.5C1077.1,497.9 1077.1,498.2 1076.9,498.4ZM1069.8,491L1069.8,479.4L1075.1,479.4L1075.1,491L1069.8,491ZM1076.9,476.9C1076.8,477 1076.6,477.1 1076.5,477.1C1076.4,477.1 1076.2,477 1076.1,476.9C1072.8,473.6 1068.8,476.8 1068.6,476.9C1068.4,477.1 1068,477.1 1067.8,476.8C1067.6,476.6 1067.6,476.2 1067.9,476C1067.9,476 1072.8,471.9 1076.9,476C1077.1,476.3 1077.1,476.6 1076.9,476.9ZM1079.6,463.5L1084.9,463.5L1084.9,469.2L1079.6,469.2L1079.6,463.5ZM1088.7,512.5L1083.4,512.5L1083.4,500.9L1088.7,500.9L1088.7,512.5ZM1090.6,498.4C1090.5,498.5 1090.3,498.6 1090.2,498.6C1090.1,498.6 1089.9,498.5 1089.8,498.4C1086.5,495 1082.5,498.3 1082.3,498.4C1082.1,498.6 1081.7,498.6 1081.5,498.3C1081.3,498 1081.3,497.7 1081.6,497.5C1081.6,497.5 1086.5,493.4 1090.6,497.5C1090.8,497.9 1090.8,498.2 1090.6,498.4ZM1083.5,491L1083.5,479.4L1088.8,479.4L1088.8,491L1083.5,491ZM1090.6,476.9C1090.5,477 1090.3,477.1 1090.2,477.1C1090.1,477.1 1089.9,477 1089.8,476.9C1086.5,473.6 1082.5,476.8 1082.3,476.9C1082.1,477.1 1081.7,477.1 1081.5,476.8C1081.3,476.6 1081.3,476.2 1081.6,476C1081.6,476 1086.5,471.9 1090.6,476C1090.8,476.3 1090.8,476.6 1090.6,476.9ZM1091.9,463.5L1097.2,463.5L1097.2,469.2L1091.9,469.2L1091.9,463.5ZM1102.4,512.5L1097.1,512.5L1097.1,500.9L1102.4,500.9L1102.4,512.5ZM1104.3,498.4C1104.2,498.5 1104,498.6 1103.9,498.6C1103.8,498.6 1103.6,498.5 1103.5,498.4C1100.2,495 1096.2,498.3 1096,498.4C1095.8,498.6 1095.4,498.6 1095.2,498.3C1095,498.1 1095,497.7 1095.3,497.5C1095.4,497.5 1100.2,493.4 1104.3,497.5C1104.5,497.9 1104.5,498.2 1104.3,498.4ZM1097.2,491L1097.2,479.4L1102.5,479.4L1102.5,491L1097.2,491ZM1104.3,476.9C1104.2,477 1104,477.1 1103.9,477.1C1103.8,477.1 1103.6,477 1103.5,476.9C1100.2,473.6 1096.2,476.8 1096,476.9C1095.8,477.1 1095.4,477.1 1095.2,476.8C1095,476.6 1095,476.2 1095.3,476C1095.4,476 1100.2,471.9 1104.3,476C1104.5,476.3 1104.5,476.6 1104.3,476.9ZM1116.1,512.5L1110.8,512.5L1110.8,500.9L1116.1,500.9L1116.1,512.5ZM1118,498.4C1117.9,498.5 1117.7,498.6 1117.6,498.6C1117.5,498.6 1117.3,498.5 1117.2,498.4C1113.9,495 1109.9,498.3 1109.7,498.4C1109.5,498.6 1109.1,498.6 1108.9,498.3C1108.7,498 1108.7,497.7 1109,497.5C1109.1,497.5 1113.9,493.4 1118,497.5C1118.2,497.9 1118.2,498.2 1118,498.4ZM1110.9,491L1110.9,479.4L1116.2,479.4L1116.2,491L1110.9,491ZM1118,476.9C1117.9,477 1117.7,477.1 1117.6,477.1C1117.5,477.1 1117.3,477 1117.2,476.9C1113.9,473.6 1109.9,476.8 1109.7,476.9C1109.5,477.1 1109.1,477.1 1108.9,476.8C1108.7,476.6 1108.7,476.2 1109,476C1109.1,476 1113.9,471.9 1118,476C1118.2,476.3 1118.2,476.6 1118,476.9ZM1121.8,469.2L1116.5,469.2L1116.5,463.5L1121.8,463.5L1121.8,469.2ZM1129.8,512.5L1124.5,512.5L1124.5,500.9L1129.8,500.9L1129.8,512.5ZM1131.7,498.4C1131.6,498.5 1131.4,498.6 1131.3,498.6C1131.2,498.6 1131,498.5 1130.9,498.4C1127.6,495 1123.6,498.3 1123.4,498.4C1123.2,498.6 1122.8,498.6 1122.6,498.3C1122.4,498.1 1122.4,497.7 1122.7,497.5C1122.7,497.5 1127.6,493.4 1131.7,497.5C1131.9,497.9 1131.9,498.2 1131.7,498.4ZM1124.6,491L1124.6,479.4L1129.9,479.4L1129.9,491L1124.6,491ZM1131.7,476.9C1131.6,477 1131.4,477.1 1131.3,477.1C1131.2,477.1 1131,477 1130.9,476.9C1127.6,473.6 1123.6,476.8 1123.4,476.9C1123.2,477.1 1122.8,477.1 1122.6,476.8C1122.4,476.6 1122.4,476.2 1122.7,476C1122.7,476 1127.6,471.9 1131.7,476C1131.9,476.3 1131.9,476.6 1131.7,476.9Z" style="fill:none;fill-rule:nonzero;stroke:rgb(5,52,122);stroke-width:3px;"/>
                        <rect x="947.4" y="408" width="6.5" height="55.2" style="fill:none;stroke:rgb(5,52,122);stroke-width:3px;"/>
                        <path d="M1027.2,408.5L1027.2,466.9C1027.2,466.9 1032.4,466.9 1033.4,471L1033.8,465.8L1033.8,408.6L1027.2,408.6L1027.2,408.5Z" style="fill:none;fill-rule:nonzero;stroke:rgb(5,52,122);stroke-width:3px;"/>
                        <rect x="977.6" y="408.5" width="7" height="57.2" style="fill:none;stroke:rgb(5,52,122);stroke-width:3px;"/>
                        <path d="M1167.9,550.2L1167.9,524.6L1132.9,524.6C1132.9,524.6 1135.5,542.2 1136.5,550.2L1145.8,550.2L1145.8,535.5C1145.8,532 1148.6,529.2 1152.1,529.2C1155.6,529.2 1158.4,532 1158.4,535.5L1158.4,550.2L1167.9,550.2Z" style="fill:none;fill-rule:nonzero;stroke:rgb(5,52,122);stroke-width:3px;"/>
                        <path d="M1138.8,550.2L1136.9,522.9L1031.9,522.9L1031.3,550.2L1041.5,550.2L1041.5,532.9C1041.5,529.4 1044.3,526.6 1047.8,526.6C1051.3,526.6 1054.1,529.4 1054.1,532.9L1054.1,550.2L1060.5,550.2L1060.5,532.9C1060.5,529.4 1063.3,526.6 1066.8,526.6C1070.3,526.6 1073.1,529.4 1073.1,532.9L1073.1,550.2L1083.3,550.2L1083.3,533.2C1083.3,529.6 1087.4,526.6 1092.5,526.6C1097.6,526.6 1101.7,529.5 1101.7,533.2L1101.7,550.2L1111,550.2L1111,533.2C1111,529.6 1115.1,526.6 1120.2,526.6C1125.3,526.6 1129.4,529.5 1129.4,533.2L1129.4,550.2L1138.8,550.2Z" style="fill:none;fill-rule:nonzero;stroke:rgb(5,52,122);stroke-width:3px;"/>
                        <path d="M1033.3,550.2L1033.3,487.6L929.7,487.6L927.9,489.4L927.9,550.2L938.2,550.2L938.2,532.9C938.2,529.4 941,526.6 944.5,526.6C948,526.6 950.8,529.4 950.8,532.9L950.8,550.2L962,550.2L962,532.9C962,529.4 964.8,526.6 968.3,526.6C971.8,526.6 974.6,529.4 974.6,532.9L974.6,550.2L985.8,550.2L985.8,532.9C985.8,529.4 988.6,526.6 992.1,526.6C995.6,526.6 998.4,529.4 998.4,532.9L998.4,550.2L1009.6,550.2L1009.6,532.9C1009.6,529.4 1012.4,526.6 1015.9,526.6C1019.4,526.6 1022.2,529.4 1022.2,532.9L1022.2,550.2L1033.3,550.2ZM942.5,516L935.6,516L935.6,503.4L942.5,503.4L942.5,516ZM956.8,516L949.9,516L949.9,503.4L956.8,503.4L956.8,516ZM971.2,516L964.3,516L964.3,503.4L971.2,503.4L971.2,516ZM989,499.3L989,516L974.5,516L974.5,499.3C974.5,493.8 981.7,490.8 981.7,490.8C989.2,494.1 989,499.3 989,499.3ZM1000,516L993.1,516L993.1,503.4L1000,503.4L1000,516ZM1014.4,516L1007.5,516L1007.5,503.4L1014.4,503.4L1014.4,516ZM1021.8,516L1021.8,503.4L1028.7,503.4L1028.7,516L1021.8,516Z" style="fill:none;fill-rule:nonzero;stroke:rgb(5,52,122);stroke-width:3px;"/>
                        <path d="M1033.3,550.2L1033.9,408.5" style="fill:none;fill-rule:nonzero;stroke:rgb(5,52,122);stroke-width:3px;stroke-linecap:round;stroke-miterlimit:10;"/>
                        <path d="M1027.2,408.5L1027.2,466.9" style="fill:none;fill-rule:nonzero;stroke:rgb(5,52,122);stroke-width:3px;stroke-linecap:round;stroke-miterlimit:10;"/>
                        <path d="M1022.1,473.4C1022.1,473.4 1022.7,467.8 1027.2,467.1L1028.9,467.1C1028.9,467.1 1032.5,467.8 1033.6,471.8L1135.8,471.8" style="fill:none;fill-rule:nonzero;stroke:rgb(5,52,122);stroke-width:3px;stroke-linecap:round;stroke-miterlimit:10;"/>
                        <path d="M1028.7,466.5C1028.7,466.9 1028.3,467.3 1027.9,467.3C1027.5,467.3 1027.1,466.9 1027.1,466.5L1027.1,463.3C1027.1,462.9 1027.4,462.5 1027.9,462.5C1028.3,462.5 1028.7,462.8 1028.7,463.3L1028.7,466.5Z" style="fill:none;fill-rule:nonzero;stroke:rgb(5,52,122);stroke-width:3px;"/>
                        <path d="M1028.7,463.3L1028.7,466.5" style="fill:none;fill-rule:nonzero;stroke:rgb(5,52,122);stroke-width:3px;stroke-linecap:round;stroke-miterlimit:10;"/>
                        <rect x="992.4" y="466.4" width="29.7" height="8" style="fill:none;stroke:rgb(5,52,122);stroke-width:3px;"/>
                        <rect x="1002.9" y="457.2" width="8" height="9.2" style="fill:none;stroke:rgb(5,52,122);stroke-width:3px;stroke-linecap:round;stroke-miterlimit:10;"/>
                        <path d="M927.8,474.3L1033.6,474.3" style="fill:none;fill-rule:nonzero;stroke:rgb(5,52,122);stroke-width:3px;stroke-linecap:round;stroke-miterlimit:10;"/>
                        <path d="M929.7,487.5L1033.6,487.5" style="fill:none;fill-rule:nonzero;stroke:rgb(5,52,122);stroke-width:3px;stroke-linecap:round;stroke-miterlimit:10;"/>
                        <rect x="941.5" y="478.7" width="5.4" height="4.6" style="fill:none;stroke:rgb(5,52,122);stroke-width:3px;stroke-linecap:round;stroke-miterlimit:10;"/>
                        <rect x="951.4" y="478.7" width="5.4" height="4.6" style="fill:none;stroke:rgb(5,52,122);stroke-width:3px;stroke-linecap:round;stroke-miterlimit:10;"/>
                        <rect x="961.3" y="478.7" width="5.4" height="4.6" style="fill:none;stroke:rgb(5,52,122);stroke-width:3px;stroke-linecap:round;stroke-miterlimit:10;"/>
                        <rect x="994.6" y="478.7" width="5.4" height="4.6" style="fill:none;stroke:rgb(5,52,122);stroke-width:3px;stroke-linecap:round;stroke-miterlimit:10;"/>
                        <rect x="1004.5" y="478.7" width="5.4" height="4.6" style="fill:none;stroke:rgb(5,52,122);stroke-width:3px;stroke-linecap:round;stroke-miterlimit:10;"/>
                        <path d="M938,466.9L970.5,466.9C970.5,466.9 970.2,461.6 965.1,460.2L965.1,456L963.3,456L963.3,460.2C963.3,460.2 959.4,460.8 958.8,464.9L958.8,457.6L949.7,457.6L949.7,464.9C949.7,464.9 948.6,460.5 945.3,460L942.9,460C942.9,460 937.9,461.3 938,466.9Z" style="fill:none;fill-rule:nonzero;stroke:rgb(5,52,122);stroke-width:3px;"/>
                        <path d="M948.6,457.7C948.6,457.8 959.8,457.7 959.8,457.7C959.8,457.7 959.8,451.8 954.5,451.2L953.1,451.2C953.2,451.2 948.3,452.1 948.6,457.7Z" style="fill:none;fill-rule:nonzero;stroke:rgb(5,52,122);stroke-width:3px;"/>
                        <rect x="1014.4" y="478.7" width="5.4" height="4.6" style="fill:none;stroke:rgb(5,52,122);stroke-width:3px;stroke-linecap:round;stroke-miterlimit:10;"/>
                        <path d="M938,470.4C938,470.4 939,472.2 939.4,474.3" style="fill:none;fill-rule:nonzero;stroke:rgb(5,52,122);stroke-width:3px;stroke-linecap:round;stroke-miterlimit:10;"/>
                        <rect x="939.3" y="466.9" width="29.5" height="7.4" style="fill:none;stroke:rgb(5,52,122);stroke-width:3px;stroke-linecap:round;stroke-miterlimit:10;"/>
                        <path d="M938,466.9L970.5,466.9C970.5,466.9 970.2,461.6 965.1,460.2L965.1,456L963.3,456L963.3,460.2C963.3,460.2 959.4,460.8 958.8,464.9L958.8,457.6L949.7,457.6L949.7,464.9C949.7,464.9 948.6,460.5 945.3,460L942.9,460C942.9,460 937.9,461.3 938,466.9Z" style="fill:none;fill-rule:nonzero;stroke:rgb(5,52,122);stroke-width:3px;stroke-linecap:round;stroke-miterlimit:10;"/>
                        <rect x="943.3" y="455.6" width="1.8" height="4.2" style="fill:none;stroke:rgb(5,52,122);stroke-width:3px;stroke-linecap:round;stroke-miterlimit:10;"/>
                        <path d="M948.6,457.7C948.6,457.8 959.8,457.7 959.8,457.7C959.8,457.7 959.8,451.8 954.5,451.2L953.1,451.2C953.2,451.2 948.3,452.1 948.6,457.7Z" style="fill:none;fill-rule:nonzero;stroke:rgb(5,52,122);stroke-width:3px;stroke-linecap:round;stroke-miterlimit:10;"/>
                        <path d="M963.2,460.2L965.1,460.2" style="fill:none;fill-rule:nonzero;stroke:rgb(5,52,122);stroke-width:3px;stroke-linecap:round;stroke-miterlimit:10;"/>
                        <path d="M943.6,408L953.9,408L956.3,410.5L975.1,410.5L977.6,408.4L984.6,408.4L986.8,409.9L986.8,405L974.7,405L974.7,406.9C974.7,406.9 956.3,406.4 956.3,406.9C956.3,407.4 956.3,405 956.3,405L943.6,405L943.6,408Z" style="fill:none;fill-rule:nonzero;stroke:rgb(5,52,122);stroke-width:3px;stroke-linecap:round;stroke-miterlimit:10;"/>
                        <path d="M956.3,410.6L956.3,407" style="fill:none;fill-rule:nonzero;stroke:rgb(5,52,122);stroke-width:3px;stroke-linecap:round;stroke-miterlimit:10;"/>
                        <path d="M974.7,407L974.7,410.6" style="fill:none;fill-rule:nonzero;stroke:rgb(5,52,122);stroke-width:3px;stroke-linecap:round;stroke-miterlimit:10;"/>
                        <path d="M946.8,399.2L956.3,399.2L956.3,402.3L974.7,402.3L974.7,399.2L986,399.2L986,402.3L1025.5,402.3L1025.5,399.2L1037,399.2L1037,402L1055.2,402L1055.2,399.2L1066.2,399.2" style="fill:none;fill-rule:nonzero;stroke:rgb(5,52,122);stroke-width:3px;stroke-linecap:round;stroke-miterlimit:10;"/>
                        <path d="M946.8,388.7L976.7,388.7" style="fill:none;fill-rule:nonzero;stroke:rgb(5,52,122);stroke-width:3px;stroke-linecap:round;stroke-miterlimit:10;"/>
                        <path d="M976.7,399.2L976.7,390.9C976.7,385 978.6,373.5 978.6,373.5C978.6,373.5 980.1,385.9 980.1,391.1L980.1,399.2" style="fill:none;fill-rule:nonzero;stroke:rgb(5,52,122);stroke-width:3px;stroke-linecap:round;stroke-miterlimit:10;"/>
                        <path d="M984.5,377.4L984.5,399.2" style="fill:none;fill-rule:nonzero;stroke:rgb(5,52,122);stroke-width:3px;stroke-linecap:round;stroke-miterlimit:10;"/>
                        <path d="M980.1,389.1L984.5,389.1" style="fill:none;fill-rule:nonzero;stroke:rgb(5,52,122);stroke-width:3px;stroke-linecap:round;stroke-miterlimit:10;"/>
                        <path d="M944.6,345C944.6,345 945.1,343.5 947.1,343.7C949.2,343.9 950.1,345 950.1,345L981,345C981,345 985.1,343 987,345.4" style="fill:none;fill-rule:nonzero;stroke:rgb(5,52,122);stroke-width:3px;stroke-linecap:round;stroke-miterlimit:10;"/>
                        <path d="M988.7,343.9C988.7,343.9 987.7,341.1 984.5,341C981.2,340.9 980.5,342 980.5,342L951,342C951,342 945.7,339.3 942.9,343" style="fill:none;fill-rule:nonzero;stroke:rgb(5,52,122);stroke-width:3px;stroke-linecap:round;stroke-miterlimit:10;"/>
                        <path d="M951,342L951,329.2" style="fill:none;fill-rule:nonzero;stroke:rgb(5,52,122);stroke-width:3px;stroke-linecap:round;stroke-miterlimit:10;"/>
                        <path d="M954.5,330.1C954.5,330.1 958.8,331.8 958.9,333.3C959,334.8 951,336.6 951,336.6" style="fill:none;fill-rule:nonzero;stroke:rgb(5,52,122);stroke-width:3px;stroke-linecap:round;stroke-miterlimit:10;"/>
                        <path d="M977.8,329.8C977.8,329.8 973,332.2 973.4,333.5C973.9,334.8 981.1,335.3 981.1,335.3" style="fill:none;fill-rule:nonzero;stroke:rgb(5,52,122);stroke-width:3px;stroke-linecap:round;stroke-miterlimit:10;"/>
                        <path d="M980.2,342L981.5,328.1" style="fill:none;fill-rule:nonzero;stroke:rgb(5,52,122);stroke-width:3px;stroke-linecap:round;stroke-miterlimit:10;"/>
                        <path d="M966.2,269.6L970.2,297.7L970.2,309.2L966.2,316.8L961.9,309.4L961.9,297.4L966.2,269.6Z" style="fill:none;fill-rule:nonzero;stroke:rgb(5,52,122);stroke-width:3px;stroke-linecap:round;stroke-miterlimit:10;"/>
                        <path d="M961.9,299.4C961.9,299.4 965.8,297 970.2,299.4" style="fill:none;fill-rule:nonzero;stroke:rgb(5,52,122);stroke-width:3px;stroke-linecap:round;stroke-miterlimit:10;"/>
                        <path d="M961.9,304.8C961.9,304.8 964.9,302.5 970.2,304.8" style="fill:none;fill-rule:nonzero;stroke:rgb(5,52,122);stroke-width:3px;stroke-linecap:round;stroke-miterlimit:10;"/>
                        <path d="M961.9,309.4C961.9,309.4 966.2,307.1 970.2,309.4" style="fill:none;fill-rule:nonzero;stroke:rgb(5,52,122);stroke-width:3px;stroke-linecap:round;stroke-miterlimit:10;"/>
                        <path d="M973.8,297.5L976.3,318.6" style="fill:none;fill-rule:nonzero;stroke:rgb(5,52,122);stroke-width:3px;stroke-linecap:round;stroke-miterlimit:10;"/>
                        <path d="M979.7,301.4L974.2,301.4" style="fill:none;fill-rule:nonzero;stroke:rgb(5,52,122);stroke-width:3px;stroke-linecap:round;stroke-miterlimit:10;"/>
                        <path d="M979.4,303.3L974.5,303.3" style="fill:none;fill-rule:nonzero;stroke:rgb(5,52,122);stroke-width:3px;stroke-linecap:round;stroke-miterlimit:10;"/>
                        <path d="M979.4,308.1L975.1,308.1" style="fill:none;fill-rule:nonzero;stroke:rgb(5,52,122);stroke-width:3px;stroke-linecap:round;stroke-miterlimit:10;"/>
                        <path d="M979.4,310.3L975.3,310.3" style="fill:none;fill-rule:nonzero;stroke:rgb(5,52,122);stroke-width:3px;stroke-linecap:round;stroke-miterlimit:10;"/>
                        <path d="M958.8,296.4L956.5,318.6" style="fill:none;fill-rule:nonzero;stroke:rgb(5,52,122);stroke-width:3px;stroke-linecap:round;stroke-miterlimit:10;"/>
                        <path d="M953.5,302.1L958.2,302.1" style="fill:none;fill-rule:nonzero;stroke:rgb(5,52,122);stroke-width:3px;stroke-linecap:round;stroke-miterlimit:10;"/>
                        <path d="M953.1,303.8L958,303.8" style="fill:none;fill-rule:nonzero;stroke:rgb(5,52,122);stroke-width:3px;stroke-linecap:round;stroke-miterlimit:10;"/>
                        <path d="M953.1,308.2L957.6,308.2" style="fill:none;fill-rule:nonzero;stroke:rgb(5,52,122);stroke-width:3px;stroke-linecap:round;stroke-miterlimit:10;"/>
                        <path d="M953,310.4L957.3,310.4" style="fill:none;fill-rule:nonzero;stroke:rgb(5,52,122);stroke-width:3px;stroke-linecap:round;stroke-miterlimit:10;"/>
                        <path d="M953.1,313.3C953.1,313.3 955,312.3 957.1,313.3" style="fill:none;fill-rule:nonzero;stroke:rgb(5,52,122);stroke-width:3px;stroke-linecap:round;stroke-miterlimit:10;"/>
                        <path d="M975.8,314C975.8,314 976.7,312.7 979.4,313.8" style="fill:none;fill-rule:nonzero;stroke:rgb(5,52,122);stroke-width:3px;stroke-linecap:round;stroke-miterlimit:10;"/>
                        <path d="M1033.9,330.1C1033.9,330.1 1038.2,331.8 1038.3,333.3C1038.4,334.8 1030.4,336.6 1030.4,336.6" style="fill:none;fill-rule:nonzero;stroke:rgb(5,52,122);stroke-width:3px;stroke-linecap:round;stroke-miterlimit:10;"/>
                        <path d="M1057.1,329.8C1057.1,329.8 1052.3,332.2 1052.7,333.5C1053.2,334.8 1060.4,335.3 1060.4,335.3" style="fill:none;fill-rule:nonzero;stroke:rgb(5,52,122);stroke-width:3px;stroke-linecap:round;stroke-miterlimit:10;"/>
                        <path d="M1045.6,269.6L1049.6,297.7L1049.6,309.2L1045.6,316.8L1041.3,309.4L1041.3,297.4L1045.6,269.6Z" style="fill:none;fill-rule:nonzero;stroke:rgb(5,52,122);stroke-width:3px;stroke-linecap:round;stroke-miterlimit:10;"/>
                        <path d="M1041.3,299.4C1041.3,299.4 1045.2,297 1049.6,299.4" style="fill:none;fill-rule:nonzero;stroke:rgb(5,52,122);stroke-width:3px;stroke-linecap:round;stroke-miterlimit:10;"/>
                        <path d="M1041.3,304.8C1041.3,304.8 1044.3,302.5 1049.6,304.8" style="fill:none;fill-rule:nonzero;stroke:rgb(5,52,122);stroke-width:3px;stroke-linecap:round;stroke-miterlimit:10;"/>
                        <path d="M1041.3,309.4C1041.3,309.4 1045.6,307.1 1049.6,309.4" style="fill:none;fill-rule:nonzero;stroke:rgb(5,52,122);stroke-width:3px;stroke-linecap:round;stroke-miterlimit:10;"/>
                        <path d="M1053.1,297.5L1055.7,318.6" style="fill:none;fill-rule:nonzero;stroke:rgb(5,52,122);stroke-width:3px;stroke-linecap:round;stroke-miterlimit:10;"/>
                        <path d="M1059,301.4L1053.6,301.4" style="fill:none;fill-rule:nonzero;stroke:rgb(5,52,122);stroke-width:3px;stroke-linecap:round;stroke-miterlimit:10;"/>
                        <path d="M1058.8,303.3L1053.8,303.3" style="fill:none;fill-rule:nonzero;stroke:rgb(5,52,122);stroke-width:3px;stroke-linecap:round;stroke-miterlimit:10;"/>
                        <path d="M1058.8,308.1L1054.4,308.1" style="fill:none;fill-rule:nonzero;stroke:rgb(5,52,122);stroke-width:3px;stroke-linecap:round;stroke-miterlimit:10;"/>
                        <path d="M1058.8,310.3L1054.7,310.3" style="fill:none;fill-rule:nonzero;stroke:rgb(5,52,122);stroke-width:3px;stroke-linecap:round;stroke-miterlimit:10;"/>
                        <path d="M1038.2,296.4L1035.9,318.6" style="fill:none;fill-rule:nonzero;stroke:rgb(5,52,122);stroke-width:3px;stroke-linecap:round;stroke-miterlimit:10;"/>
                        <path d="M1032.9,302.1L1037.6,302.1" style="fill:none;fill-rule:nonzero;stroke:rgb(5,52,122);stroke-width:3px;stroke-linecap:round;stroke-miterlimit:10;"/>
                        <path d="M1032.4,303.8L1037.4,303.8" style="fill:none;fill-rule:nonzero;stroke:rgb(5,52,122);stroke-width:3px;stroke-linecap:round;stroke-miterlimit:10;"/>
                        <path d="M1032.4,308.2L1037,308.2" style="fill:none;fill-rule:nonzero;stroke:rgb(5,52,122);stroke-width:3px;stroke-linecap:round;stroke-miterlimit:10;"/>
                        <path d="M1032.4,310.4L1036.7,310.4" style="fill:none;fill-rule:nonzero;stroke:rgb(5,52,122);stroke-width:3px;stroke-linecap:round;stroke-miterlimit:10;"/>
                        <path d="M1032.4,313.3C1032.4,313.3 1034.3,312.3 1036.4,313.3" style="fill:none;fill-rule:nonzero;stroke:rgb(5,52,122);stroke-width:3px;stroke-linecap:round;stroke-miterlimit:10;"/>
                        <path d="M1055.2,314C1055.2,314 1056.1,312.7 1058.8,313.8" style="fill:none;fill-rule:nonzero;stroke:rgb(5,52,122);stroke-width:3px;stroke-linecap:round;stroke-miterlimit:10;"/>
                        <path d="M968.8,472.7C968.8,472.7 972.2,464.8 980.2,464.9C988.1,464.9 992.4,472.4 992.4,472.4" style="fill:none;fill-rule:nonzero;stroke:rgb(5,52,122);stroke-width:3px;stroke-linecap:round;stroke-miterlimit:10;"/>
                        <path d="M977.6,408.5L977.6,465.2" style="fill:none;fill-rule:nonzero;stroke:rgb(5,52,122);stroke-width:3px;stroke-linecap:round;stroke-miterlimit:10;"/>
                        <path d="M984.6,408.5L984.6,465.7" style="fill:none;fill-rule:nonzero;stroke:rgb(5,52,122);stroke-width:3px;stroke-linecap:round;stroke-miterlimit:10;"/>
                        <path d="M940.5,430.7L947.4,430.7" style="fill:none;fill-rule:nonzero;stroke:rgb(5,52,122);stroke-width:3px;stroke-linecap:round;stroke-miterlimit:10;"/>
                        <path d="M947.4,408L947.4,460.6" style="fill:none;fill-rule:nonzero;stroke:rgb(5,52,122);stroke-width:3px;stroke-linecap:round;stroke-miterlimit:10;"/>
                        <path d="M953.9,408L953.9,446.9" style="fill:none;fill-rule:nonzero;stroke:rgb(5,52,122);stroke-width:3px;stroke-linecap:round;stroke-miterlimit:10;"/>
                        <path d="M977.6,430.7L953.9,430.7" style="fill:none;fill-rule:nonzero;stroke:rgb(5,52,122);stroke-width:3px;stroke-linecap:round;stroke-miterlimit:10;"/>
                        <path d="M947.4,427.5L953.9,427.5" style="fill:none;fill-rule:nonzero;stroke:rgb(5,52,122);stroke-width:3px;stroke-linecap:round;stroke-linejoin:miter;stroke-miterlimit:10;"/>
                        <path d="M966.9,444.4L966.9,436.2C966.9,434.8 965.7,433.6 964.3,433.6C962.9,433.6 961.7,434.8 961.7,436.2L961.7,444.4L966.9,444.4Z" style="fill:none;fill-rule:nonzero;stroke:rgb(5,52,122);stroke-width:3px;stroke-linecap:round;stroke-miterlimit:10;"/>
                        <path d="M986.8,410L1025.1,410L1025.1,404.6L1036.3,404.6L1036.3,410.6L1055.3,410.6L1055.3,404.6L1068,404.6" style="fill:none;fill-rule:nonzero;stroke:rgb(5,52,122);stroke-width:3px;stroke-linecap:round;stroke-miterlimit:10;"/>
                        <path d="M1068,408.3L1057.8,408.3L1055.3,410.6" style="fill:none;fill-rule:nonzero;stroke:rgb(5,52,122);stroke-width:3px;stroke-linecap:round;stroke-miterlimit:10;"/>
                        <path d="M1036.3,410.6L1033.8,408.1L1027.7,408.1L1025.1,410" style="fill:none;fill-rule:nonzero;stroke:rgb(5,52,122);stroke-width:3px;stroke-linecap:round;stroke-miterlimit:10;"/>
                        <path d="M984.5,397L1026.2,397" style="fill:none;fill-rule:nonzero;stroke:rgb(5,52,122);stroke-width:3px;stroke-linecap:round;stroke-miterlimit:10;"/>
                        <path d="M1026.5,399.2L1026.5,379.1" style="fill:none;fill-rule:nonzero;stroke:rgb(5,52,122);stroke-width:3px;stroke-linecap:round;stroke-miterlimit:10;"/>
                        <path d="M1031.3,399.2L1031.3,388.7L1033.3,373.8L1035,388.7L1035,399.2" style="fill:none;fill-rule:nonzero;stroke:rgb(5,52,122);stroke-width:3px;stroke-linecap:round;stroke-miterlimit:10;"/>
                        <path d="M1066.2,389.2L1035,389.2" style="fill:none;fill-rule:nonzero;stroke:rgb(5,52,122);stroke-width:3px;stroke-linecap:round;stroke-miterlimit:10;"/>
                        <path d="M1026.5,388.7L1031.3,388.7" style="fill:none;fill-rule:nonzero;stroke:rgb(5,52,122);stroke-width:3px;stroke-linecap:round;stroke-miterlimit:10;"/>
                        <path d="M1023.5,342.5L1026.2,341.1L1028.5,341.1L1030.9,342.5L1061.3,342.5L1063.4,340.9L1065.7,340.9L1068.6,342.6" style="fill:none;fill-rule:nonzero;stroke:rgb(5,52,122);stroke-width:3px;stroke-linecap:round;stroke-miterlimit:10;"/>
                        <path d="M1024.8,344.8L1026.4,344L1029.1,344L1030.7,345L1061.7,345L1063.9,344L1065.7,344L1067.7,345.4" style="fill:none;fill-rule:nonzero;stroke:rgb(5,52,122);stroke-width:3px;stroke-linecap:round;stroke-miterlimit:10;"/>
                        <path d="M1033.6,430.7L1056.3,430.7" style="fill:none;fill-rule:nonzero;stroke:rgb(5,52,122);stroke-width:3px;stroke-linecap:round;stroke-miterlimit:10;"/>
                        <path d="M1057.8,408.3L1057.8,443.1L1064.2,443.1L1064.2,408.1" style="fill:none;fill-rule:nonzero;stroke:rgb(5,52,122);stroke-width:3px;stroke-linecap:round;stroke-miterlimit:10;"/>
                        <path d="M1071.6,430.7L1064.2,430.7" style="fill:none;fill-rule:nonzero;stroke:rgb(5,52,122);stroke-width:3px;stroke-linecap:round;stroke-miterlimit:10;"/>
                        <path d="M1057.8,428.5L1064.2,428.5" style="fill:none;fill-rule:nonzero;stroke:rgb(5,52,122);stroke-width:3px;stroke-linecap:round;stroke-miterlimit:10;"/>
                        <path d="M1033.9,455.2L1136.3,455.2L1136.3,515.9L1138.8,550.2" style="fill:none;fill-rule:nonzero;stroke:rgb(5,52,122);stroke-width:3px;stroke-linecap:round;stroke-miterlimit:10;"/>
                        <path d="M1167.9,516.6L1136.4,516.6" style="fill:none;fill-rule:nonzero;stroke:rgb(5,52,122);stroke-width:3px;stroke-linecap:round;stroke-miterlimit:10;"/>
                        <path d="M1167.9,524.6L1136.9,524.6" style="fill:none;fill-rule:nonzero;stroke:rgb(5,52,122);stroke-width:3px;stroke-linecap:round;stroke-miterlimit:10;"/>
                        <path d="M1033.6,515.2L1136.4,515.2" style="fill:none;fill-rule:nonzero;stroke:rgb(5,52,122);stroke-width:3px;stroke-linecap:round;stroke-miterlimit:10;"/>
                        <path d="M1033.6,522.9L1136.9,522.9" style="fill:none;fill-rule:nonzero;stroke:rgb(5,52,122);stroke-width:3px;stroke-linecap:round;stroke-miterlimit:10;"/>
                        <path d="M1035.6,455.2C1035.6,455.2 1035.7,452.3 1036.8,452C1037.9,451.7 1042.1,451.1 1042.1,448.7L1042.1,446.2L1052.4,440.2L1061,445.7L1061,448.7C1061,448.7 1061.9,452.1 1066.3,452.1L1073.4,452.1C1073.4,452.1 1076.4,450.5 1076.6,447.7L1078.2,447.7C1078.2,447.7 1077.9,443.9 1081.7,442.2" style="fill:none;fill-rule:nonzero;stroke:rgb(5,52,122);stroke-width:3px;stroke-linecap:round;stroke-miterlimit:10;"/>
                        <path d="M1162.2,447L1134.4,447" style="fill:none;fill-rule:nonzero;stroke:rgb(5,52,122);stroke-width:3px;stroke-linecap:round;stroke-miterlimit:10;"/>
                        <path d="M1136.3,459.1L1167.5,459.1" style="fill:none;fill-rule:nonzero;stroke:rgb(5,52,122);stroke-width:3px;stroke-linecap:round;stroke-miterlimit:10;"/>
                        <path d="M1136.3,465.5L1167.9,465.5" style="fill:none;fill-rule:nonzero;stroke:rgb(5,52,122);stroke-width:3px;stroke-linecap:round;stroke-miterlimit:10;"/>
                        <path d="M1167.9,475.3L1136.4,475.3" style="fill:none;fill-rule:nonzero;stroke:rgb(5,52,122);stroke-width:3px;stroke-linecap:round;stroke-miterlimit:10;"/>
                        <path d="M1167.5,462.4L1167.5,454.4C1161.8,453.7 1162.2,446.3 1162.2,446.3L1148.5,435.5L1134.3,446.2L1134.3,450.4L1132.2,450.4L1127.6,448.2L1127.6,446.2L1128.7,446.2L1128.7,444.8L1118.7,439.5L1112.1,443.7L1092,443.7C1092,443.7 1090.5,439.4 1087.3,439.3C1084.1,439.2 1081.7,442.2 1081.7,442.2C1081.7,442.2 1071.4,442.3 1071.4,442.2C1071.5,442.1 1071.4,420.1 1071.4,420.1L1064.5,412L1064.5,410.9L1067.9,408.4L1067.9,399.4L1066,399.4L1066,347.4L1068.4,344.3L1068.4,329.8L1065.6,297.3L1064.5,297.3L1061.6,328.4L1056.9,330.2L1055.6,319.5L1057.1,317.8L1057.1,315.4L1058.7,315.4L1058.7,311L1060.2,310L1060.2,308.5L1058.7,308.5L1058.7,304.6L1059.8,304.6L1059.8,302.6L1058.9,301.3C1058.9,301.3 1057.3,275.3 1057,275.3C1056.8,275.3 1053.6,299.2 1053.6,299.2L1046,254L1046,233L1044.6,233L1044.6,254.2L1037.9,299.2L1034.6,274.9L1032.7,302L1031.4,303.3L1031.4,304.8L1032.7,304.8L1032.7,308.6L1031.6,308.6L1031.6,309.7L1032.3,310.4L1032.3,315.6L1034.1,315.6L1034.1,318L1035.7,318.8L1034.6,330.4L1030.1,329.7L1027,297L1025.9,297L1023.5,329.9L1023.5,343.8L1027,346.2L1027,381L1024.3,369.6L1023.2,369.8L1023.2,386.5L1021.3,382.3L1020.5,359.7L1019.4,359.7L1018.4,375.9L1016.3,371.9L1015.7,350.7L1014.7,350.7L1013.6,365.3L1011.2,361.1L1011.2,344.7L1010.1,344.7L1008.9,355.5L1007.3,351.3L1007.3,346.6L1006,346.6L1006,332L1004.4,332L1004.4,333.3L1005.6,333.3L1005.6,346.4L1004.8,346.4L1004.8,351.3L1003.2,354.5L1001.6,345L1000.7,345L1000.7,360.7L998.5,364.9L997.3,350.2L996.5,350.2L996.1,371.2L993.7,375.1L992.2,359.6L991.4,359.6L991,382.8L987.8,386.2L987.8,369.3L987,369.3L984.7,377.2L984.7,357.6L987.7,357.6L985.7,355.8L985.7,346.5L988.9,343.7L988.9,326.6L985.2,296.6L981.6,327.8L977.5,329.9L975.7,319.2L979.1,313.9L979.1,310.4L980.4,310.4L980.4,308.2L979,308.2L979,303.4L980.2,303.4L980.2,301.5L979.2,301.5L977,274.3C977,274.3 973.3,297.5 973.3,297.7C973.2,297.9 966.1,253.7 966.1,253.7L966.1,233.5L965.3,233.5L965.3,253.7L958.3,297L954.6,274.7L953,302.5L951.7,302.5L951.7,304.2L952.6,304.2L952.6,308.6L951.7,308.6L951.7,310.8L952.5,310.8L952.5,314.5L955.9,319L954.5,330.1L951,329.3L949.9,325.1L946.8,297L942.9,326.8L942.9,343.8L946,346.2L946,353.8L944.3,355.9L944.3,358.3L946.8,358.3L946.8,399.3L943.6,399.3L943.6,408.1L946.8,410.6L946.8,412.7L940.5,420.1L940.5,444.5L938,448L938,470.3C937,468.5 935.5,468.3 935.5,468.3L935.5,464.4L933.4,464.4L933.4,468.5C928.9,468.5 927.9,474.3 927.9,474.3L929.7,474.3L929.7,487.5L927.9,489.3L927.9,550.1L938.2,550.1L938.2,532.8C938.2,529.3 941,526.5 944.5,526.5C948,526.5 950.8,529.3 950.8,532.8L950.8,550.1L962,550.1L962,532.8C962,529.3 964.8,526.5 968.3,526.5C971.8,526.5 974.6,529.3 974.6,532.8L974.6,550.1L985.8,550.1L985.8,532.8C985.8,529.3 988.6,526.5 992.1,526.5C995.6,526.5 998.4,529.3 998.4,532.8L998.4,550.1L1009.6,550.1L1009.6,532.8C1009.6,529.3 1012.4,526.5 1015.9,526.5C1019.4,526.5 1022.2,529.3 1022.2,532.8L1022.2,550.1L1041.3,550.1L1041.3,532.8C1041.3,529.3 1044.1,526.5 1047.6,526.5C1051.1,526.5 1053.9,529.3 1053.9,532.8L1053.9,550.1L1060.3,550.1L1060.3,532.8C1060.3,529.3 1063.1,526.5 1066.6,526.5C1070.1,526.5 1072.9,529.3 1072.9,532.8L1072.9,550.1L1083.1,550.1L1083.1,533.1C1083.1,529.5 1087.2,526.5 1092.3,526.5C1097.4,526.5 1101.5,529.4 1101.5,533.1L1101.5,550.1L1110.8,550.1L1110.8,533.1C1110.8,529.5 1114.9,526.5 1120,526.5C1125.1,526.5 1129.2,529.4 1129.2,533.1L1129.2,550.1L1145.4,550.1L1145.4,535.4C1145.4,531.9 1148.2,529.1 1151.7,529.1C1155.2,529.1 1158,531.9 1158,535.4L1158,550.1L1167.5,550.1L1167.5,466L1169.9,462.3L1167.5,462.3L1167.5,462.4ZM942.5,516L935.6,516L935.6,503.4L942.5,503.4L942.5,516ZM956.8,516L949.9,516L949.9,503.4L956.8,503.4L956.8,516ZM962.7,360.6C962.7,359.1 963.9,357.9 965.4,357.9C966.9,357.9 968.1,359.1 968.1,360.6L968.1,384.7L962.8,384.7L962.8,360.6L962.7,360.6ZM961.7,400.8L961.7,398.1C961.7,397.1 962.5,396.3 963.5,396.3C964.5,396.3 965.3,397.1 965.3,398.1L965.3,400.8L961.7,400.8ZM971.2,516L964.3,516L964.3,503.4L971.2,503.4L971.2,516ZM989,499.3L989,516L974.5,516L974.5,499.3C974.5,493.8 981.7,490.8 981.7,490.8C989.2,494.1 989,499.3 989,499.3ZM1000,516L993.1,516L993.1,503.4L1000,503.4L1000,516ZM1014.4,516L1007.5,516L1007.5,503.4L1014.4,503.4L1014.4,516ZM1019.6,460.5C1018.9,460.1 1017.3,459.8 1017.3,459.8L1017.3,455.5L1016,455.5L1016,460.1C1012.1,460.8 1011,464.9 1011,464.9L1011,457.2L1012.5,457.2C1012.2,451.7 1007.4,450.9 1007.4,450.9L1007.4,447L1006,447L1006,451.1C1001.2,452.3 1001.4,457.2 1001.4,457.2L1003.1,457.2L1003.1,464.9C1001.9,461.6 997.2,459.9 997.2,459.9L997.2,455.9L996.2,455.9L996.2,460C994.8,460 992.5,461.3 992.5,461.3L992.5,431.6C992.5,422.9 1005.9,418 1005.9,418C1018.7,421.4 1019.7,431.3 1019.7,431.3L1019.7,460.5L1019.6,460.5ZM1028.7,516L1021.8,516L1021.8,503.4L1028.7,503.4L1028.7,516ZM1055.1,463.5L1060.4,463.5L1060.4,469.2L1055.1,469.2L1055.1,463.5ZM1049.9,398.1L1049.9,400.8L1045.7,400.8L1045.7,398.1C1045.7,396.9 1046.6,396 1047.8,396C1049,396 1049.9,396.9 1049.9,398.1ZM1043.7,361.1C1043.7,359.7 1044.8,358.6 1046.2,358.6C1047.6,358.6 1048.7,359.7 1048.7,361.1L1048.7,384.2L1043.6,384.2L1043.6,361.1L1043.7,361.1ZM1042.9,463.5L1048.2,463.5L1048.2,469.2L1042.9,469.2L1042.9,463.5ZM1047.6,512.5L1042.3,512.5L1042.3,500.9L1047.6,500.9L1047.6,512.5ZM1049.5,498.4C1049.4,498.5 1049.2,498.6 1049.1,498.6C1049,498.6 1048.8,498.5 1048.7,498.4C1045.4,495 1041.4,498.3 1041.2,498.4C1041,498.6 1040.6,498.6 1040.4,498.3C1040.2,498.1 1040.2,497.7 1040.5,497.5C1040.5,497.5 1045.4,493.4 1049.5,497.5C1049.7,497.9 1049.7,498.2 1049.5,498.4ZM1042.4,491L1042.4,479.4L1047.7,479.4L1047.7,491L1042.4,491ZM1049.5,476.9C1049.4,477 1049.2,477.1 1049.1,477.1C1049,477.1 1048.8,477 1048.7,476.9C1045.4,473.6 1041.4,476.8 1041.2,476.9C1041,477.1 1040.6,477.1 1040.4,476.8C1040.2,476.6 1040.2,476.2 1040.5,476C1040.5,476 1045.4,471.9 1049.5,476C1049.7,476.3 1049.7,476.6 1049.5,476.9ZM1049.1,453.4L1049.1,447.7L1054.4,447.7L1054.4,453.4L1049.1,453.4ZM1061.3,512.5L1056,512.5L1056,500.9L1061.3,500.9L1061.3,512.5ZM1063.2,498.4C1063.1,498.5 1062.9,498.6 1062.8,498.6C1062.7,498.6 1062.5,498.5 1062.4,498.4C1059.1,495 1055.1,498.3 1054.9,498.4C1054.7,498.6 1054.3,498.6 1054.1,498.3C1053.9,498.1 1053.9,497.7 1054.2,497.5C1054.3,497.5 1059.1,493.4 1063.2,497.5C1063.4,497.9 1063.4,498.2 1063.2,498.4ZM1056.1,491L1056.1,479.4L1061.4,479.4L1061.4,491L1056.1,491ZM1063.2,476.9C1063.1,477 1062.9,477.1 1062.8,477.1C1062.7,477.1 1062.5,477 1062.4,476.9C1059.1,473.6 1055.1,476.8 1054.9,476.9C1054.7,477.1 1054.3,477.1 1054.1,476.8C1053.9,476.6 1053.9,476.2 1054.2,476C1054.3,476 1059.1,471.9 1063.2,476C1063.4,476.3 1063.4,476.6 1063.2,476.9ZM1116.2,447.7L1121.5,447.7L1121.5,453.4L1116.2,453.4L1116.2,447.7ZM1104.2,463.5L1109.6,463.5L1109.6,469.2L1104.2,469.2L1104.2,463.5ZM1084.8,447.7L1090.1,447.7L1090.1,453.4L1084.8,453.4L1084.8,447.7ZM1067.4,463.5L1072.7,463.5L1072.7,469.2L1067.4,469.2L1067.4,463.5ZM1075,512.5L1069.7,512.5L1069.7,500.9L1075,500.9L1075,512.5ZM1076.9,498.4C1076.8,498.5 1076.6,498.6 1076.5,498.6C1076.4,498.6 1076.2,498.5 1076.1,498.4C1072.8,495 1068.8,498.3 1068.6,498.4C1068.4,498.6 1068,498.6 1067.8,498.3C1067.6,498 1067.6,497.7 1067.9,497.5C1067.9,497.5 1072.8,493.4 1076.9,497.5C1077.1,497.9 1077.1,498.2 1076.9,498.4ZM1069.8,491L1069.8,479.4L1075.1,479.4L1075.1,491L1069.8,491ZM1076.9,476.9C1076.8,477 1076.6,477.1 1076.5,477.1C1076.4,477.1 1076.2,477 1076.1,476.9C1072.8,473.6 1068.8,476.8 1068.6,476.9C1068.4,477.1 1068,477.1 1067.8,476.8C1067.6,476.6 1067.6,476.2 1067.9,476C1067.9,476 1072.8,471.9 1076.9,476C1077.1,476.3 1077.1,476.6 1076.9,476.9ZM1079.6,463.5L1084.9,463.5L1084.9,469.2L1079.6,469.2L1079.6,463.5ZM1088.7,512.5L1083.4,512.5L1083.4,500.9L1088.7,500.9L1088.7,512.5ZM1090.6,498.4C1090.5,498.5 1090.3,498.6 1090.2,498.6C1090.1,498.6 1089.9,498.5 1089.8,498.4C1086.5,495 1082.5,498.3 1082.3,498.4C1082.1,498.6 1081.7,498.6 1081.5,498.3C1081.3,498 1081.3,497.7 1081.6,497.5C1081.6,497.5 1086.5,493.4 1090.6,497.5C1090.8,497.9 1090.8,498.2 1090.6,498.4ZM1083.5,491L1083.5,479.4L1088.8,479.4L1088.8,491L1083.5,491ZM1090.6,476.9C1090.5,477 1090.3,477.1 1090.2,477.1C1090.1,477.1 1089.9,477 1089.8,476.9C1086.5,473.6 1082.5,476.8 1082.3,476.9C1082.1,477.1 1081.7,477.1 1081.5,476.8C1081.3,476.6 1081.3,476.2 1081.6,476C1081.6,476 1086.5,471.9 1090.6,476C1090.8,476.3 1090.8,476.6 1090.6,476.9ZM1091.9,469.2L1091.9,463.5L1097.2,463.5L1097.2,469.2L1091.9,469.2ZM1102.4,512.5L1097.1,512.5L1097.1,500.9L1102.4,500.9L1102.4,512.5ZM1104.3,498.4C1104.2,498.5 1104,498.6 1103.9,498.6C1103.8,498.6 1103.6,498.5 1103.5,498.4C1100.2,495 1096.2,498.3 1096,498.4C1095.8,498.6 1095.4,498.6 1095.2,498.3C1095,498.1 1095,497.7 1095.3,497.5C1095.4,497.5 1100.2,493.4 1104.3,497.5C1104.5,497.9 1104.5,498.2 1104.3,498.4ZM1097.2,491L1097.2,479.4L1102.5,479.4L1102.5,491L1097.2,491ZM1104.3,476.9C1104.2,477 1104,477.1 1103.9,477.1C1103.8,477.1 1103.6,477 1103.5,476.9C1100.2,473.6 1096.2,476.8 1096,476.9C1095.8,477.1 1095.4,477.1 1095.2,476.8C1095,476.6 1095,476.2 1095.3,476C1095.4,476 1100.2,471.9 1104.3,476C1104.5,476.3 1104.5,476.6 1104.3,476.9ZM1116.1,512.5L1110.8,512.5L1110.8,500.9L1116.1,500.9L1116.1,512.5ZM1118,498.4C1117.9,498.5 1117.7,498.6 1117.6,498.6C1117.5,498.6 1117.3,498.5 1117.2,498.4C1113.9,495 1109.9,498.3 1109.7,498.4C1109.5,498.6 1109.1,498.6 1108.9,498.3C1108.7,498 1108.7,497.7 1109,497.5C1109.1,497.5 1113.9,493.4 1118,497.5C1118.2,497.9 1118.2,498.2 1118,498.4ZM1110.9,491L1110.9,479.4L1116.2,479.4L1116.2,491L1110.9,491ZM1118,476.9C1117.9,477 1117.7,477.1 1117.6,477.1C1117.5,477.1 1117.3,477 1117.2,476.9C1113.9,473.6 1109.9,476.8 1109.7,476.9C1109.5,477.1 1109.1,477.1 1108.9,476.8C1108.7,476.6 1108.7,476.2 1109,476C1109.1,476 1113.9,471.9 1118,476C1118.2,476.3 1118.2,476.6 1118,476.9ZM1121.8,469.2L1116.5,469.2L1116.5,463.5L1121.8,463.5L1121.8,469.2ZM1129.8,512.5L1124.5,512.5L1124.5,500.9L1129.8,500.9L1129.8,512.5ZM1131.7,498.4C1131.6,498.5 1131.4,498.6 1131.3,498.6C1131.2,498.6 1131,498.5 1130.9,498.4C1127.6,495 1123.6,498.3 1123.4,498.4C1123.2,498.6 1122.8,498.6 1122.6,498.3C1122.4,498.1 1122.4,497.7 1122.7,497.5C1122.7,497.5 1127.6,493.4 1131.7,497.5C1131.9,497.9 1131.9,498.2 1131.7,498.4ZM1124.6,491L1124.6,479.4L1129.9,479.4L1129.9,491L1124.6,491ZM1131.7,476.9C1131.6,477 1131.4,477.1 1131.3,477.1C1131.2,477.1 1131,477 1130.9,476.9C1127.6,473.6 1123.6,476.8 1123.4,476.9C1123.2,477.1 1122.8,477.1 1122.6,476.8C1122.4,476.6 1122.4,476.2 1122.7,476C1122.7,476 1127.6,471.9 1131.7,476C1131.9,476.3 1131.9,476.6 1131.7,476.9ZM1153.1,467L1158.4,467L1158.4,473.7L1153.1,473.7L1153.1,467ZM1140.1,515.2L1136.4,515.2L1136.4,503.6L1140.1,503.6L1140.1,515.2ZM1140.1,493.5L1136.4,493.5L1136.4,481.9L1140.1,481.9L1140.1,493.5ZM1140.1,473.7L1136.4,473.7L1136.4,467L1140.1,467L1140.1,473.7ZM1145.6,457.4L1145.6,451.7L1150.9,451.7L1150.9,457.4L1145.6,457.4ZM1158.4,515.2L1153.1,515.2L1153.1,503.6L1158.4,503.6L1158.4,515.2ZM1159.7,501.2C1159.6,501.3 1159.4,501.4 1159.3,501.4C1159.2,501.4 1159,501.3 1158.9,501.2C1155.6,497.8 1151.6,501.1 1151.4,501.2C1151.2,501.4 1150.8,501.4 1150.6,501.1C1150.4,500.9 1150.4,500.5 1150.7,500.3C1150.7,500.3 1155.6,496.2 1159.7,500.3C1159.9,500.6 1159.9,501 1159.7,501.2ZM1153.1,493.5L1153.1,481.9L1158.4,481.9L1158.4,493.5L1153.1,493.5ZM1160.3,479.7C1160.2,479.8 1160,479.9 1159.9,479.9C1159.8,479.9 1159.6,479.8 1159.5,479.7C1156.2,476.3 1152.2,479.6 1152,479.7C1151.8,479.9 1151.4,479.9 1151.2,479.6C1151,479.4 1151,479 1151.3,478.8C1151.3,478.8 1156.2,474.7 1160.3,478.8C1160.5,479.1 1160.5,479.4 1160.3,479.7Z" style="fill:none;fill-rule:nonzero;stroke:rgb(5,52,122);stroke-width:3px;stroke-linecap:round;stroke-miterlimit:10;"/>
                        <path d="M1030.1,329.6L1031.3,342.5" style="fill:none;fill-rule:nonzero;stroke:rgb(5,52,122);stroke-width:3px;stroke-linecap:round;stroke-miterlimit:10;"/>
                        <path d="M1061.8,328.4L1060.4,342.5" style="fill:none;fill-rule:nonzero;stroke:rgb(5,52,122);stroke-width:3px;stroke-linecap:round;stroke-miterlimit:10;"/>
                        <path d="M1148.6,435.5L1134.4,446.2L1134.4,447.1L1162.2,447.1L1162.2,446.4L1148.6,435.5Z" style="fill:none;fill-rule:nonzero;stroke:rgb(5,52,122);stroke-width:3px;"/>
                        <rect x="979.2" y="459.8" width="2.5" height="5.1" style="fill:none;stroke:rgb(5,52,122);stroke-width:3px;"/>
                        <rect x="979.2" y="459.8" width="2.5" height="5.1" style="fill:none;stroke:rgb(5,52,122);stroke-width:3px;stroke-linecap:round;stroke-miterlimit:10;"/>
                        <rect x="1057.8" y="408.3" width="6.4" height="34.7" style="fill:none;stroke:rgb(5,52,122);stroke-width:3px;"/>
                        <rect x="952.9" y="446.9" width="1.8" height="4.2" style="fill:none;stroke:rgb(5,52,122);stroke-width:3px;stroke-linecap:round;stroke-miterlimit:10;"/>
                        <rect x="952.9" y="446.9" width="1.8" height="4.2" style="fill:none;stroke:rgb(5,52,122);stroke-width:3px;"/>
                        <path d="M1041.3,297.4L1049.6,297.4L1045.6,269.6L1041.3,297.4Z" style="fill:none;fill-rule:nonzero;stroke:rgb(5,52,122);stroke-width:3px;"/>
                        <path d="M981.3,330.8C981.3,330.8 985.3,328.7 988.8,331" style="fill:none;fill-rule:nonzero;stroke:rgb(5,52,122);stroke-width:3px;stroke-linecap:round;stroke-linejoin:miter;stroke-miterlimit:10;"/>
                        <path d="M942.9,331.4C942.9,331.4 947,328.4 951,331.6" style="fill:none;fill-rule:nonzero;stroke:rgb(5,52,122);stroke-width:3px;stroke-linecap:round;stroke-linejoin:miter;stroke-miterlimit:10;"/>
                        <path d="M1061.5,330.8C1061.5,330.8 1065.5,328.7 1069,331" style="fill:none;fill-rule:nonzero;stroke:rgb(5,52,122);stroke-width:3px;stroke-linecap:round;stroke-linejoin:miter;stroke-miterlimit:10;"/>
                        <path d="M1023.1,331.4C1023.1,331.4 1027.2,328.4 1031.2,331.6" style="fill:none;fill-rule:nonzero;stroke:rgb(5,52,122);stroke-width:3px;stroke-linecap:round;stroke-linejoin:miter;stroke-miterlimit:10;"/>
                    </g>
                    <g transform="matrix(1,0,0,0.461836,307.11,956.132)">
                        <g>
                            <path d="M1316.6,510.7L1316.6,509L1313,507.5L1313,502.5L1312.1,501.6L1312.1,482.5L1313.9,482.5L1313.9,480.4L1312.6,480.4L1312.6,476.7L1315.8,474.1L1315.8,472.4L1312.1,472.4L1312.1,462.4L1304.8,462.4L1304.8,455.7L1302.3,455.7L1302.3,454L1303.8,454L1302.3,450.4L1301,450.4L1301,445.9L1299.3,445.9L1299.3,448.5L1297.9,448.5L1297.9,443.5L1295.7,443.5L1295.7,445.7L1294.4,447L1294.4,450.3L1295,450.9L1295,455.9L1271.5,455.9L1271.5,452.9L1272.1,452.3L1272.1,446.6L1271.2,445.7L1271.2,443.5L1269.5,443.5L1269.5,445.1L1268.1,446.5L1268.1,451.9L1269.2,453L1269.2,456.1L1266.9,456.1L1266.9,443L1270.2,439.7L1270.2,437.7L1265.2,437.7L1265.2,430.6L1266.9,430.6L1266.9,428.5L1260.7,428.5L1258.1,430.5L1258.1,432.2L1259.3,433.4L1259.3,438.5C1259.3,438.5 1258.1,438.3 1256,437.9L1256,433.9L1254.2,433.9L1254.2,437.6C1250.9,437 1246.2,436.3 1240.8,435.5L1240.8,431.8L1239,431.8L1239,435.2C1235.1,434.7 1230.9,434.2 1226.5,433.8L1226.5,430.2C1226.5,430.2 1226.3,430.2 1225.9,430.1L1225.9,427L1224.4,427L1224.4,430.2C1222.3,430 1218.8,429.6 1214.3,429.3L1214.3,426L1212.8,426L1212.8,429.2C1209.6,429 1206.1,428.8 1202.3,428.7L1202.3,425.4L1200.8,425.4L1200.8,428.7C1199.1,428.6 1197.3,428.6 1195.5,428.6C1193.7,428.6 1191.9,428.7 1190.2,428.7L1190.2,425.4L1188.7,425.4L1188.7,428.7C1184.9,428.8 1181.4,429 1178.2,429.2L1178.2,426L1176.7,426L1176.7,429.3C1172.2,429.6 1168.7,430 1166.6,430.2L1166.6,427L1165.1,427L1165.1,430.3C1164.7,430.3 1164.5,430.4 1164.5,430.4L1164.5,434C1160.2,434.4 1155.9,434.9 1152,435.4L1152,432L1150.2,432L1150.2,435.7C1144.8,436.4 1140.1,437.2 1136.8,437.8L1136.8,434L1135,434L1135,438C1132.9,438.4 1131.7,438.6 1131.7,438.6L1131.7,433.5L1132.9,432.3L1132.9,430.6L1130.3,428.6L1124.1,428.6L1124.1,430.7L1125.8,430.7L1125.8,437.8L1120.8,437.8L1120.8,439.8L1124.1,443.1L1124.1,456.3L1121.8,456.3L1121.8,453.2L1122.9,452.1L1122.9,446.7L1121.5,445.3L1121.5,443.7L1119.8,443.7L1119.8,445.9L1118.9,446.8L1118.9,452.5L1119.5,453.1L1119.5,456.1L1096,456.1L1096,451.1L1096.6,450.5L1096.6,447L1095.3,445.7L1095.3,443.5L1093.1,443.5L1093.1,448.5L1091.7,448.5L1091.7,445.9L1090,445.9L1090,450.4L1088.7,450.4L1087.2,454L1088.7,454L1088.7,455.5L1086.2,455.5L1086.2,462.2L1078.9,462.2L1078.9,472.2L1075.2,472.2L1075.2,473.9L1078.4,476.5L1078.4,480.2L1077.1,480.2L1077.1,482.3L1078.9,482.3L1078.9,501.4L1078,502.3L1078,507.3L1074.4,508.8L1074.4,510.5L1077.3,510.5L1077.3,533.5L1076,534.8L1076,545.6L1074.5,545.6L1074.5,549.5L1147.3,549.5L1159.6,535L1231,535L1243.3,549.5L1316.1,549.5L1316.1,545.6L1314.6,545.6L1314.6,535L1313.3,533.7L1313.3,510.7L1316.6,510.7ZM1110.6,545.7L1103.6,545.7L1103.6,538.7L1110.6,538.7L1110.6,545.7ZM1110.6,529.4L1103.6,529.4L1103.6,518.7C1103.6,516.8 1105.2,515.2 1107.1,515.2C1109,515.2 1110.6,516.8 1110.6,518.7L1110.6,529.4ZM1110.9,498.8L1104,498.8L1104,483.2L1110.9,483.2L1110.9,498.8ZM1141.3,479.4C1141.3,476.5 1143.7,474.1 1146.6,474.1C1149.5,474.1 1151.9,476.5 1151.9,479.4L1151.9,498.3L1141.2,498.3L1141.2,479.4L1141.3,479.4ZM1153.7,535.1L1143,535.1L1143,516.2C1143,513.2 1145.4,510.9 1148.3,510.9C1151.2,510.9 1153.6,513.3 1153.6,516.2L1153.6,535.1L1153.7,535.1ZM1176.4,535.1L1165.7,535.1L1165.7,516.2C1165.7,513.2 1168.1,510.9 1171,510.9C1174,510.9 1176.3,513.3 1176.3,516.2L1176.3,535.1L1176.4,535.1ZM1176.8,498.3L1166.1,498.3L1166.1,479.4C1166.1,476.5 1168.5,474.1 1171.4,474.1C1174.4,474.1 1176.7,476.5 1176.7,479.4L1176.7,498.3L1176.8,498.3ZM1201.1,535.1L1190.5,535.1L1190.5,516.2C1190.5,513.2 1192.9,510.9 1195.8,510.9C1198.8,510.9 1201.1,513.3 1201.1,516.2L1201.1,535.1ZM1201.1,498.3L1190.5,498.3L1190.5,479.4C1190.5,476.5 1192.9,474.1 1195.8,474.1C1198.8,474.1 1201.1,476.5 1201.1,479.4L1201.1,498.3ZM1214.7,479.4C1214.7,476.5 1217.1,474.1 1220,474.1C1222.9,474.1 1225.3,476.5 1225.3,479.4L1225.3,498.3L1214.6,498.3L1214.6,479.4L1214.7,479.4ZM1225.7,535.1L1215,535.1L1215,516.2C1215,513.2 1217.4,510.9 1220.3,510.9C1223.3,510.9 1225.6,513.3 1225.6,516.2L1225.6,535.1L1225.7,535.1ZM1248.5,535.1L1237.8,535.1L1237.8,516.2C1237.8,513.2 1240.2,510.9 1243.1,510.9C1246,510.9 1248.4,513.3 1248.4,516.2L1248.4,535.1L1248.5,535.1ZM1250.2,498.3L1239.5,498.3L1239.5,479.4C1239.5,476.5 1241.9,474.1 1244.8,474.1C1247.8,474.1 1250.1,476.5 1250.1,479.4L1250.1,498.3L1250.2,498.3ZM1280.5,483.2L1287.4,483.2L1287.4,498.8L1280.5,498.8L1280.5,483.2ZM1287.9,545.7L1280.9,545.7L1280.9,538.7L1287.9,538.7L1287.9,545.7ZM1287.9,529.4L1280.9,529.4L1280.9,518.7C1280.9,516.8 1282.5,515.2 1284.4,515.2C1286.3,515.2 1287.9,516.8 1287.9,518.7L1287.9,529.4Z" style="fill:none;fill-rule:nonzero;stroke:rgb(5,52,122);stroke-width:3px;"/>
                            <path d="M1259.5,456.2L1259.5,438.6C1259.5,438.6 1258.3,438.4 1256.2,438L1256.2,434L1254.4,434L1254.4,437.7C1251.1,437.1 1246.4,436.4 1241,435.6L1241,431.9L1239.2,431.9L1239.2,435.3C1235.3,434.8 1231.1,434.3 1226.7,433.9L1226.7,430.3C1226.7,430.3 1226.5,430.3 1226.1,430.2L1226.1,427L1224.6,427L1224.6,430.2C1222.5,430 1219,429.6 1214.5,429.3L1214.5,426L1213,426L1213,429.2C1209.8,429 1206.3,428.8 1202.5,428.7L1202.5,425.4L1201,425.4L1201,428.7C1199.3,428.6 1197.5,428.6 1195.7,428.6C1193.9,428.6 1192.1,428.7 1190.4,428.7L1190.4,425.4L1188.9,425.4L1188.9,428.7C1185.1,428.8 1181.6,429 1178.4,429.2L1178.4,426L1176.9,426L1176.9,429.3C1172.4,429.6 1168.9,430 1166.8,430.2L1166.8,427L1165.3,427L1165.3,430.3C1164.9,430.3 1164.7,430.4 1164.7,430.4L1164.7,434C1160.4,434.4 1156.1,434.9 1152.2,435.4L1152.2,432L1150.4,432L1150.4,435.7C1145,436.4 1140.3,437.2 1137,437.8L1137,434L1135.2,434L1135.2,438C1133.1,438.4 1131.9,438.6 1131.9,438.6L1131.9,457.6C1131.9,457.6 1190.9,449.9 1259.4,457.6C1259.8,457.6 1259.2,456.2 1259.5,456.2Z" style="fill:none;fill-rule:nonzero;stroke:rgb(5,52,122);stroke-width:3px;"/>
                            <path d="M1160,535.2L1148.5,548.8L1148.5,535.2L1160,535.2Z" style="fill:none;fill-rule:nonzero;stroke:rgb(5,52,122);stroke-width:3px;"/>
                            <path d="M1231.8,535.2L1243.4,548.8L1243.4,535.2L1231.8,535.2Z" style="fill:none;fill-rule:nonzero;stroke:rgb(5,52,122);stroke-width:3px;"/>
                            <path d="M1303.2,467L1263.3,467L1263.3,505.1L1303.2,505.1L1303.2,467ZM1287.4,498.8L1280.5,498.8L1280.5,483.2L1287.4,483.2L1287.4,498.8Z" style="fill:none;fill-rule:nonzero;stroke:rgb(5,52,122);stroke-width:3px;"/>
                            <path d="M1128.1,467L1088.2,467L1088.2,505.1L1128.1,505.1L1128.1,467ZM1110.9,498.8L1104,498.8L1104,483.2L1110.9,483.2L1110.9,498.8Z" style="fill:none;fill-rule:nonzero;stroke:rgb(5,52,122);stroke-width:3px;"/>
                            <path d="M1132,438.6L1132,457.6" style="fill:none;fill-rule:nonzero;stroke:rgb(5,52,122);stroke-width:3px;stroke-linecap:round;stroke-miterlimit:10;"/>
                            <path d="M1124.4,456.2L1128.1,456.2L1128.1,462.3" style="fill:none;fill-rule:nonzero;stroke:rgb(5,52,122);stroke-width:3px;stroke-linecap:round;stroke-miterlimit:10;"/>
                            <path d="M1088.2,467L1083.4,464.4L1083.4,462.3L1131.5,462.3L1131.5,464.2L1127.8,467L1088.2,467Z" style="fill:none;fill-rule:nonzero;stroke:rgb(5,52,122);stroke-width:3px;stroke-linecap:round;stroke-miterlimit:10;"/>
                            <rect x="1088.2" y="467" width="39.9" height="38.1" style="fill:none;stroke:rgb(5,52,122);stroke-width:3px;stroke-linecap:round;stroke-miterlimit:10;"/>
                            <path d="M1079.3,472.3L1088.2,472.3" style="fill:none;fill-rule:nonzero;stroke:rgb(5,52,122);stroke-width:3px;stroke-linecap:round;stroke-miterlimit:10;"/>
                            <path d="M1078.8,476.6L1088.2,476.6" style="fill:none;fill-rule:nonzero;stroke:rgb(5,52,122);stroke-width:3px;stroke-linecap:round;stroke-miterlimit:10;"/>
                            <path d="M1100.7,479.4L1107.5,475.4L1113.7,479.4L1100.7,479.4Z" style="fill:none;fill-rule:nonzero;stroke:rgb(5,52,122);stroke-width:3px;stroke-linecap:round;stroke-miterlimit:10;"/>
                            <path d="M1078.4,505.1L1088.2,505.1" style="fill:none;fill-rule:nonzero;stroke:rgb(5,52,122);stroke-width:3px;stroke-linecap:round;stroke-miterlimit:10;"/>
                            <path d="M1077.7,533.7L1128.1,533.7" style="fill:none;fill-rule:nonzero;stroke:rgb(5,52,122);stroke-width:3px;stroke-linecap:round;stroke-miterlimit:10;"/>
                            <path d="M1128.1,549.7L1128.1,467" style="fill:none;fill-rule:nonzero;stroke:rgb(5,52,122);stroke-width:3px;stroke-linecap:round;stroke-miterlimit:10;"/>
                            <path d="M1195.7,454.1C1195.7,454.1 1145.4,454.6 1128.1,458.4" style="fill:none;fill-rule:nonzero;stroke:rgb(5,52,122);stroke-width:3px;stroke-linecap:round;stroke-miterlimit:10;"/>
                            <path d="M1131.5,464.2C1131.5,464.2 1169.9,460.9 1195.7,461.2" style="fill:none;fill-rule:nonzero;stroke:rgb(5,52,122);stroke-width:3px;stroke-linecap:round;stroke-miterlimit:10;"/>
                            <path d="M1128.1,468.8C1128.1,468.8 1154.2,465 1195.7,465.4" style="fill:none;fill-rule:nonzero;stroke:rgb(5,52,122);stroke-width:3px;stroke-linecap:round;stroke-miterlimit:10;"/>
                            <path d="M1160,535.2L1128.1,535.2" style="fill:none;fill-rule:nonzero;stroke:rgb(5,52,122);stroke-width:3px;stroke-linecap:round;stroke-miterlimit:10;"/>
                            <path d="M1148.5,548.8L1148.5,535.2" style="fill:none;fill-rule:nonzero;stroke:rgb(5,52,122);stroke-width:3px;stroke-linecap:round;stroke-miterlimit:10;"/>
                            <path d="M1259.5,438.6L1259.5,457.6" style="fill:none;fill-rule:nonzero;stroke:rgb(5,52,122);stroke-width:3px;stroke-linecap:round;stroke-miterlimit:10;"/>
                            <path d="M1267,456.2L1263.3,456.2L1263.3,462.3" style="fill:none;fill-rule:nonzero;stroke:rgb(5,52,122);stroke-width:3px;stroke-linecap:round;stroke-miterlimit:10;"/>
                            <path d="M1303.2,467L1308,464.4L1308,462.3L1259.9,462.3L1259.9,464.2L1263.7,467L1303.2,467Z" style="fill:none;fill-rule:nonzero;stroke:rgb(5,52,122);stroke-width:3px;stroke-linecap:round;stroke-miterlimit:10;"/>
                            <rect x="1263.3" y="467" width="39.9" height="38.1" style="fill:none;stroke:rgb(5,52,122);stroke-width:3px;stroke-linecap:round;stroke-miterlimit:10;"/>
                            <path d="M1312.2,472.3L1303.2,472.3" style="fill:none;fill-rule:nonzero;stroke:rgb(5,52,122);stroke-width:3px;stroke-linecap:round;stroke-miterlimit:10;"/>
                            <path d="M1312.6,476.6L1303.2,476.6" style="fill:none;fill-rule:nonzero;stroke:rgb(5,52,122);stroke-width:3px;stroke-linecap:round;stroke-miterlimit:10;"/>
                            <path d="M1290.7,479.4L1284,475.4L1277.7,479.4L1290.7,479.4Z" style="fill:none;fill-rule:nonzero;stroke:rgb(5,52,122);stroke-width:3px;stroke-linecap:round;stroke-miterlimit:10;"/>
                            <path d="M1313,505.1L1303.2,505.1" style="fill:none;fill-rule:nonzero;stroke:rgb(5,52,122);stroke-width:3px;stroke-linecap:round;stroke-miterlimit:10;"/>
                            <path d="M1313.7,533.7L1263.3,533.7" style="fill:none;fill-rule:nonzero;stroke:rgb(5,52,122);stroke-width:3px;stroke-linecap:round;stroke-miterlimit:10;"/>
                            <path d="M1263.3,549.7L1263.3,467" style="fill:none;fill-rule:nonzero;stroke:rgb(5,52,122);stroke-width:3px;stroke-linecap:round;stroke-miterlimit:10;"/>
                            <path d="M1195.7,454.1C1195.7,454.1 1246,454.6 1263.3,458.4" style="fill:none;fill-rule:nonzero;stroke:rgb(5,52,122);stroke-width:3px;stroke-linecap:round;stroke-miterlimit:10;"/>
                            <path d="M1259.9,464.2C1259.9,464.2 1221.5,460.9 1195.7,461.2" style="fill:none;fill-rule:nonzero;stroke:rgb(5,52,122);stroke-width:3px;stroke-linecap:round;stroke-miterlimit:10;"/>
                            <path d="M1263.3,468.8C1263.3,468.8 1237.2,465 1195.7,465.4" style="fill:none;fill-rule:nonzero;stroke:rgb(5,52,122);stroke-width:3px;stroke-linecap:round;stroke-miterlimit:10;"/>
                            <path d="M1316.6,510.7L1316.6,509L1313,507.5L1313,502.5L1312.1,501.6L1312.1,482.5L1313.9,482.5L1313.9,480.4L1312.6,480.4L1312.6,476.7L1315.8,474.1L1315.8,472.4L1312.1,472.4L1312.1,462.4L1304.8,462.4L1304.8,455.7L1302.3,455.7L1302.3,454L1303.8,454L1302.3,450.4L1301,450.4L1301,445.9L1299.3,445.9L1299.3,448.5L1297.9,448.5L1297.9,443.5L1295.7,443.5L1295.7,445.7L1294.4,447L1294.4,450.3L1295,450.9L1295,455.9L1271.5,455.9L1271.5,452.9L1272.1,452.3L1272.1,446.6L1271.2,445.7L1271.2,443.5L1269.5,443.5L1269.5,445.1L1268.1,446.5L1268.1,451.9L1269.2,453L1269.2,456.1L1266.9,456.1L1266.9,443L1270.2,439.7L1270.2,437.7L1265.2,437.7L1265.2,430.6L1266.9,430.6L1266.9,428.5L1260.7,428.5L1258.1,430.5L1258.1,432.2L1259.3,433.4L1259.3,438.5C1259.3,438.5 1258.1,438.3 1256,437.9L1256,433.9L1254.2,433.9L1254.2,437.6C1250.9,437 1246.2,436.3 1240.8,435.5L1240.8,431.8L1239,431.8L1239,435.2C1235.1,434.7 1230.9,434.2 1226.5,433.8L1226.5,430.2C1226.5,430.2 1226.3,430.2 1225.9,430.1L1225.9,427L1224.4,427L1224.4,430.2C1222.3,430 1218.8,429.6 1214.3,429.3L1214.3,426L1212.8,426L1212.8,429.2C1209.6,429 1206.1,428.8 1202.3,428.7L1202.3,425.4L1200.8,425.4L1200.8,428.7C1199.1,428.6 1197.3,428.6 1195.5,428.6C1193.7,428.6 1191.9,428.7 1190.2,428.7L1190.2,425.4L1188.7,425.4L1188.7,428.7C1184.9,428.8 1181.4,429 1178.2,429.2L1178.2,426L1176.7,426L1176.7,429.3C1172.2,429.6 1168.7,430 1166.6,430.2L1166.6,427L1165.1,427L1165.1,430.3C1164.7,430.3 1164.5,430.4 1164.5,430.4L1164.5,434C1160.2,434.4 1155.9,434.9 1152,435.4L1152,432L1150.2,432L1150.2,435.7C1144.8,436.4 1140.1,437.2 1136.8,437.8L1136.8,434L1135,434L1135,438C1132.9,438.4 1131.7,438.6 1131.7,438.6L1131.7,433.5L1132.9,432.3L1132.9,430.6L1130.3,428.6L1124.1,428.6L1124.1,430.7L1125.8,430.7L1125.8,437.8L1120.8,437.8L1120.8,439.8L1124.1,443.1L1124.1,456.3L1121.8,456.3L1121.8,453.2L1122.9,452.1L1122.9,446.7L1121.5,445.3L1121.5,443.7L1119.8,443.7L1119.8,445.9L1118.9,446.8L1118.9,452.5L1119.5,453.1L1119.5,456.1L1096,456.1L1096,451.1L1096.6,450.5L1096.6,447L1095.3,445.7L1095.3,443.5L1093.1,443.5L1093.1,448.5L1091.7,448.5L1091.7,445.9L1090,445.9L1090,450.4L1088.7,450.4L1087.2,454L1088.7,454L1088.7,455.5L1086.2,455.5L1086.2,462.2L1078.9,462.2L1078.9,472.2L1075.2,472.2L1075.2,473.9L1078.4,476.5L1078.4,480.2L1077.1,480.2L1077.1,482.3L1078.9,482.3L1078.9,501.4L1078,502.3L1078,507.3L1074.4,508.8L1074.4,510.5L1077.3,510.5L1077.3,533.5L1076,534.8L1076,545.6L1074.5,545.6L1074.5,549.5L1147.3,549.5L1159.6,535L1231,535L1243.3,549.5L1316.1,549.5L1316.1,545.6L1314.6,545.6L1314.6,535L1313.3,533.7L1313.3,510.7L1316.6,510.7ZM1110.6,545.7L1103.6,545.7L1103.6,538.7L1110.6,538.7L1110.6,545.7ZM1110.6,529.4L1103.6,529.4L1103.6,518.7C1103.6,516.8 1105.2,515.2 1107.1,515.2C1109,515.2 1110.6,516.8 1110.6,518.7L1110.6,529.4ZM1110.9,498.8L1104,498.8L1104,483.2L1110.9,483.2L1110.9,498.8ZM1141.3,479.4C1141.3,476.5 1143.7,474.1 1146.6,474.1C1149.5,474.1 1151.9,476.5 1151.9,479.4L1151.9,498.3L1141.2,498.3L1141.2,479.4L1141.3,479.4ZM1153.7,535.1L1143,535.1L1143,516.2C1143,513.2 1145.4,510.9 1148.3,510.9C1151.2,510.9 1153.6,513.3 1153.6,516.2L1153.6,535.1L1153.7,535.1ZM1176.4,535.1L1165.7,535.1L1165.7,516.2C1165.7,513.2 1168.1,510.9 1171,510.9C1174,510.9 1176.3,513.3 1176.3,516.2L1176.3,535.1L1176.4,535.1ZM1176.8,498.3L1166.1,498.3L1166.1,479.4C1166.1,476.5 1168.5,474.1 1171.4,474.1C1174.4,474.1 1176.7,476.5 1176.7,479.4L1176.7,498.3L1176.8,498.3ZM1201.1,535.1L1190.5,535.1L1190.5,516.2C1190.5,513.2 1192.9,510.9 1195.8,510.9C1198.8,510.9 1201.1,513.3 1201.1,516.2L1201.1,535.1ZM1201.1,498.3L1190.5,498.3L1190.5,479.4C1190.5,476.5 1192.9,474.1 1195.8,474.1C1198.8,474.1 1201.1,476.5 1201.1,479.4L1201.1,498.3ZM1214.7,479.4C1214.7,476.5 1217.1,474.1 1220,474.1C1222.9,474.1 1225.3,476.5 1225.3,479.4L1225.3,498.3L1214.6,498.3L1214.6,479.4L1214.7,479.4ZM1225.7,535.1L1215,535.1L1215,516.2C1215,513.2 1217.4,510.9 1220.3,510.9C1223.3,510.9 1225.6,513.3 1225.6,516.2L1225.6,535.1L1225.7,535.1ZM1248.5,535.1L1237.8,535.1L1237.8,516.2C1237.8,513.2 1240.2,510.9 1243.1,510.9C1246,510.9 1248.4,513.3 1248.4,516.2L1248.4,535.1L1248.5,535.1ZM1250.2,498.3L1239.5,498.3L1239.5,479.4C1239.5,476.5 1241.9,474.1 1244.8,474.1C1247.8,474.1 1250.1,476.5 1250.1,479.4L1250.1,498.3L1250.2,498.3ZM1280.5,483.2L1287.4,483.2L1287.4,498.8L1280.5,498.8L1280.5,483.2ZM1287.9,545.7L1280.9,545.7L1280.9,538.7L1287.9,538.7L1287.9,545.7ZM1287.9,529.4L1280.9,529.4L1280.9,518.7C1280.9,516.8 1282.5,515.2 1284.4,515.2C1286.3,515.2 1287.9,516.8 1287.9,518.7L1287.9,529.4Z" style="fill:none;fill-rule:nonzero;stroke:rgb(5,52,122);stroke-width:3px;stroke-linecap:round;stroke-miterlimit:10;"/>
                            <path d="M1231.5,535.2L1263.3,535.2" style="fill:none;fill-rule:nonzero;stroke:rgb(5,52,122);stroke-width:3px;stroke-linecap:round;stroke-miterlimit:10;"/>
                            <path d="M1243,548.8L1243,535.2" style="fill:none;fill-rule:nonzero;stroke:rgb(5,52,122);stroke-width:3px;stroke-linecap:round;stroke-miterlimit:10;"/>
                            <path d="M1158.8,536.6L1232.6,536.6" style="fill:none;fill-rule:nonzero;stroke:rgb(5,52,122);stroke-width:3px;stroke-linecap:round;stroke-miterlimit:10;"/>
                            <path d="M1157.2,538.5L1234.2,538.5" style="fill:none;fill-rule:nonzero;stroke:rgb(5,52,122);stroke-width:3px;stroke-linecap:round;stroke-miterlimit:10;"/>
                            <path d="M1155.6,540.4L1235.9,540.4" style="fill:none;fill-rule:nonzero;stroke:rgb(5,52,122);stroke-width:3px;stroke-linecap:round;stroke-miterlimit:10;"/>
                            <path d="M1153.9,542.4L1237.6,542.4" style="fill:none;fill-rule:nonzero;stroke:rgb(5,52,122);stroke-width:3px;stroke-linecap:round;stroke-miterlimit:10;"/>
                            <path d="M1152.1,544.5L1239.3,544.5" style="fill:none;fill-rule:nonzero;stroke:rgb(5,52,122);stroke-width:3px;stroke-linecap:round;stroke-miterlimit:10;"/>
                            <path d="M1150.2,546.7L1241.2,546.7" style="fill:none;fill-rule:nonzero;stroke:rgb(5,52,122);stroke-width:3px;stroke-linecap:round;stroke-miterlimit:10;"/>
                            <path d="M1147.7,549.7L1243.8,549.7" style="fill:none;fill-rule:nonzero;stroke:rgb(5,52,122);stroke-width:3px;stroke-linecap:round;stroke-miterlimit:10;"/>
                        </g>
                        <path d="M1263.3,468.6C1195,460 1128.1,468.8 1128.1,468.8L1128.1,535.2L1263.3,535.2L1263.3,468.6ZM1141.3,479.4C1141.3,476.5 1143.7,474.1 1146.6,474.1C1149.5,474.1 1151.9,476.5 1151.9,479.4L1151.9,498.3L1141.2,498.3L1141.2,479.4L1141.3,479.4ZM1153.7,535.1L1143,535.1L1143,516.2C1143,513.2 1145.4,510.9 1148.3,510.9C1151.2,510.9 1153.6,513.3 1153.6,516.2L1153.6,535.1L1153.7,535.1ZM1176.4,535.1L1165.7,535.1L1165.7,516.2C1165.7,513.2 1168.1,510.9 1171,510.9C1174,510.9 1176.3,513.3 1176.3,516.2L1176.3,535.1L1176.4,535.1ZM1176.8,498.3L1166.1,498.3L1166.1,479.4C1166.1,476.5 1168.5,474.1 1171.4,474.1C1174.4,474.1 1176.7,476.5 1176.7,479.4L1176.7,498.3L1176.8,498.3ZM1201.1,535.1L1190.5,535.1L1190.5,516.2C1190.5,513.2 1192.9,510.9 1195.8,510.9C1198.8,510.9 1201.1,513.3 1201.1,516.2L1201.1,535.1ZM1201.1,498.3L1190.5,498.3L1190.5,479.4C1190.5,476.5 1192.9,474.1 1195.8,474.1C1198.8,474.1 1201.1,476.5 1201.1,479.4L1201.1,498.3ZM1214.7,479.4C1214.7,476.5 1217.1,474.1 1220,474.1C1222.9,474.1 1225.3,476.5 1225.3,479.4L1225.3,498.3L1214.6,498.3L1214.6,479.4L1214.7,479.4ZM1225.7,535.1L1215,535.1L1215,516.2C1215,513.2 1217.4,510.9 1220.3,510.9C1223.3,510.9 1225.6,513.3 1225.6,516.2L1225.6,535.1L1225.7,535.1ZM1248.5,535.1L1237.8,535.1L1237.8,516.2C1237.8,513.2 1240.2,510.9 1243.1,510.9C1246,510.9 1248.4,513.3 1248.4,516.2L1248.4,535.1L1248.5,535.1ZM1250.2,498.3L1239.5,498.3L1239.5,479.4C1239.5,476.5 1241.9,474.1 1244.8,474.1C1247.8,474.1 1250.1,476.5 1250.1,479.4L1250.1,498.3L1250.2,498.3Z" style="fill:none;fill-rule:nonzero;stroke:rgb(5,52,122);stroke-width:3px;"/>
                    </g>
                </g>
            </g>
        </g>
    </g>
</svg>
